<svg width="60" height="61" viewBox="0 0 60 61" fill="none" xmlns="http://www.w3.org/2000/svg">
<rect y="0.575684" width="60" height="60" rx="4" fill="white"/>
<path d="M26.0628 26.9871C25.7286 26.9871 25.4436 26.869 25.2078 26.6326C24.9718 26.3963 24.8537 26.1111 24.8537 25.7769C24.8537 25.4427 24.972 25.1577 25.2085 24.9219C25.4448 24.6859 25.7301 24.5679 26.0643 24.5679C26.3984 24.5679 26.6834 24.6861 26.9193 24.9224C27.1551 25.1587 27.273 25.444 27.273 25.7781C27.273 26.1123 27.1548 26.3974 26.9185 26.6334C26.6822 26.8692 26.3969 26.9871 26.0628 26.9871ZM29.9992 26.9871C29.6651 26.9871 29.3801 26.869 29.1442 26.6326C28.9084 26.3963 28.7905 26.1111 28.7905 25.7769C28.7905 25.4427 28.9087 25.1577 29.145 24.9219C29.3813 24.6859 29.6666 24.5679 30.0008 24.5679C30.3349 24.5679 30.6199 24.6861 30.8558 24.9224C31.0916 25.1587 31.2095 25.444 31.2095 25.7781C31.2095 26.1123 31.0913 26.3974 30.855 26.6334C30.6187 26.8692 30.3334 26.9871 29.9992 26.9871ZM33.9358 26.9871C33.6016 26.9871 33.3166 26.869 33.0807 26.6326C32.8449 26.3963 32.727 26.1111 32.727 25.7769C32.727 25.4427 32.8452 25.1577 33.0815 24.9219C33.3178 24.6859 33.6031 24.5679 33.9373 24.5679C34.2714 24.5679 34.5564 24.6861 34.7923 24.9224C35.0283 25.1587 35.1462 25.444 35.1462 25.7781C35.1462 26.1123 35.028 26.3974 34.7915 26.6334C34.5552 26.8692 34.2699 26.9871 33.9358 26.9871ZM22.75 21.7256V19.5756C22.75 17.7551 23.3324 16.1683 24.4973 14.8151C25.6619 13.462 27.1378 12.6693 28.925 12.4371V10.2756H31.075V12.4371C32.8622 12.6693 34.3381 13.462 35.5027 14.8151C36.6676 16.1683 37.25 17.7551 37.25 19.5756V21.7256H22.75ZM24.9 19.5756H35.1C35.1 18.159 34.6022 16.9548 33.6065 15.9631C32.6108 14.9715 31.4067 14.4756 29.994 14.4756C28.5813 14.4756 27.3792 14.9729 26.3875 15.9674C25.3958 16.9619 24.9 18.1646 24.9 19.5756ZM26.0628 30.9236C25.7286 30.9236 25.4436 30.8055 25.2078 30.5691C24.9718 30.3328 24.8537 30.0476 24.8537 29.7134C24.8537 29.3792 24.972 29.0942 25.2085 28.8584C25.4448 28.6224 25.7301 28.5044 26.0643 28.5044C26.3984 28.5044 26.6834 28.6226 26.9193 28.8589C27.1551 29.0952 27.273 29.3805 27.273 29.7146C27.273 30.0488 27.1548 30.3339 26.9185 30.5699C26.6822 30.8057 26.3969 30.9236 26.0628 30.9236ZM29.9992 30.9236C29.6651 30.9236 29.3801 30.8055 29.1442 30.5691C28.9084 30.3328 28.7905 30.0476 28.7905 29.7134C28.7905 29.3792 28.9087 29.0942 29.145 28.8584C29.3813 28.6224 29.6666 28.5044 30.0008 28.5044C30.3349 28.5044 30.6199 28.6226 30.8558 28.8589C31.0916 29.0952 31.2095 29.3805 31.2095 29.7146C31.2095 30.0488 31.0913 30.3339 30.855 30.5699C30.6187 30.8057 30.3334 30.9236 29.9992 30.9236ZM33.9358 30.9236C33.6016 30.9236 33.3166 30.8055 33.0807 30.5691C32.8449 30.3328 32.727 30.0476 32.727 29.7134C32.727 29.3792 32.8452 29.0942 33.0815 28.8584C33.3178 28.6224 33.6031 28.5044 33.9373 28.5044C34.2714 28.5044 34.5564 28.6226 34.7923 28.8589C35.0283 29.0952 35.1462 29.3805 35.1462 29.7146C35.1462 30.0488 35.028 30.3339 34.7915 30.5699C34.5552 30.8057 34.2699 30.9236 33.9358 30.9236Z" fill="#5F6368"/>
<path d="M19.4297 42.5405H17.7422V44.8257H19.4297V45.6108H17.7422V49.5249H16.8281V39.1069H17.7422V41.7554H19.4297V42.5405ZM13.1719 41.9077C13.1719 42.5171 13.291 43.1206 13.5293 43.7183C13.7715 44.3159 14.0977 44.8472 14.5078 45.312C14.9219 45.7729 15.375 46.1187 15.8672 46.3491L15.3047 47.1108C14.7344 46.8101 14.2207 46.3745 13.7637 45.8042C13.3105 45.23 12.9648 44.5835 12.7266 43.8647C12.4922 44.6304 12.1426 45.3218 11.6777 45.939C11.2168 46.5522 10.6992 47.0132 10.125 47.3218L9.52734 46.5952C10.0273 46.3452 10.4863 45.9722 10.9043 45.4761C11.3223 44.9761 11.6523 44.4116 11.8945 43.7827C12.1406 43.1538 12.2656 42.5288 12.2695 41.9077V40.0093H13.1719V41.9077ZM28.6758 49.5366H27.7383V46.9468H25.3359V46.2437H27.7383V39.1187H28.6758V49.5366ZM20.0039 44.603C21.3867 44.603 22.6328 44.5835 23.7422 44.5444C24.8516 44.5015 25.9141 44.4077 26.9297 44.2632L26.9883 44.9546C26.0391 45.1147 24.9922 45.228 23.8477 45.2944V49.2085H22.9219V45.3413C22.1602 45.3726 21.2305 45.3882 20.1328 45.3882L20.0039 44.603ZM23.4375 39.6343C23.9492 39.6343 24.4023 39.7202 24.7969 39.8921C25.1953 40.064 25.5059 40.3062 25.7285 40.6187C25.9512 40.9272 26.0625 41.2827 26.0625 41.6851C26.0625 42.0913 25.9512 42.4487 25.7285 42.7573C25.5098 43.0659 25.2012 43.3042 24.8027 43.4722C24.4043 43.6401 23.9492 43.7241 23.4375 43.7241C22.9219 43.7241 22.4648 43.6401 22.0664 43.4722C21.668 43.3042 21.3574 43.0659 21.1348 42.7573C20.9121 42.4487 20.8008 42.0913 20.8008 41.6851C20.8008 41.2827 20.9121 40.9272 21.1348 40.6187C21.3574 40.3062 21.668 40.064 22.0664 39.8921C22.4648 39.7202 22.9219 39.6343 23.4375 39.6343ZM23.4375 40.3491C23.0898 40.3491 22.7812 40.4058 22.5117 40.519C22.2422 40.6323 22.0332 40.7905 21.8848 40.9937C21.7363 41.1968 21.6641 41.4272 21.668 41.6851C21.6641 41.9468 21.7363 42.1792 21.8848 42.3823C22.0332 42.5815 22.2422 42.7358 22.5117 42.8452C22.7812 42.9546 23.0898 43.0093 23.4375 43.0093C23.7734 43.0093 24.0742 42.9546 24.3398 42.8452C24.6094 42.7358 24.8184 42.5815 24.9668 42.3823C25.1191 42.1792 25.1953 41.9468 25.1953 41.6851C25.1953 41.4272 25.1191 41.1968 24.9668 40.9937C24.8184 40.7905 24.6094 40.6323 24.3398 40.519C24.0742 40.4058 23.7734 40.3491 23.4375 40.3491ZM34.125 41.9077C34.1211 42.5249 34.2461 43.1382 34.5 43.7476C34.7539 44.353 35.0977 44.8921 35.5312 45.3647C35.9648 45.8374 36.4375 46.189 36.9492 46.4194L36.3867 47.146C35.793 46.853 35.2539 46.4175 34.7695 45.8394C34.2891 45.2573 33.9258 44.5972 33.6797 43.8589C33.4375 44.644 33.0742 45.3472 32.5898 45.9683C32.1055 46.5854 31.5586 47.0483 30.9492 47.3569L30.3633 46.5835C30.875 46.3452 31.3477 45.9839 31.7812 45.4995C32.2148 45.0112 32.5605 44.4526 32.8184 43.8237C33.0762 43.1909 33.207 42.5522 33.2109 41.9077V40.0093H34.125V41.9077ZM39.0117 49.5483H38.0859V39.1069H39.0117V49.5483ZM49.4297 44.4976H48.5039V41.7905H46.1836V41.0288H48.5039V39.1069H49.4297V44.4976ZM49.4297 47.5093H43.6055V48.646H49.8164V49.3843H42.7031V46.8062H48.5156V45.7632H42.6797V45.0249H49.4297V47.5093ZM44.3438 40.4312C44.3398 40.8804 44.4473 41.312 44.666 41.7261C44.8848 42.1401 45.1914 42.5054 45.5859 42.8218C45.9805 43.1382 46.4297 43.3804 46.9336 43.5483L46.4414 44.2632C45.8633 44.0562 45.3535 43.7554 44.9121 43.3608C44.4707 42.9663 44.1348 42.5073 43.9043 41.9839C43.6855 42.5737 43.3496 43.0894 42.8965 43.5308C42.4434 43.9683 41.9062 44.2983 41.2852 44.521L40.7812 43.7827C41.3008 43.6108 41.7598 43.3589 42.1582 43.0269C42.5605 42.6909 42.873 42.3003 43.0957 41.855C43.3223 41.4058 43.4375 40.9312 43.4414 40.4312V39.4468H44.3438V40.4312Z" fill="#6B6E78"/>
</svg>
