<svg width="16" height="17" viewBox="0 0 16 17" fill="none" xmlns="http://www.w3.org/2000/svg">
<path d="M8.00205 8.65255C8.37816 8.65255 8.7006 8.51777 8.96938 8.24822C9.23827 7.97866 9.37271 7.65583 9.37271 7.27972C9.37271 6.9036 9.23794 6.58111 8.96838 6.31222C8.69882 6.04344 8.37594 5.90905 7.99971 5.90905C7.6236 5.90905 7.30116 6.04383 7.03238 6.31338C6.76349 6.58294 6.62905 6.90583 6.62905 7.28205C6.62905 7.65816 6.76382 7.98061 7.03338 8.24938C7.30294 8.51816 7.62582 8.65255 8.00205 8.65255ZM8.00088 13.5514C9.29399 12.4505 10.3059 11.3556 11.0367 10.2667C11.7675 9.17783 12.1329 8.20816 12.1329 7.35772C12.1329 6.18683 11.7357 5.18772 10.9412 4.36038C10.1468 3.53305 9.16666 3.11938 8.00088 3.11938C6.8351 3.11938 5.85499 3.53305 5.06055 4.36038C4.2661 5.18772 3.86888 6.18683 3.86888 7.35772C3.86888 8.20816 4.23427 9.17505 4.96505 10.2584C5.69582 11.3417 6.70777 12.4394 8.00088 13.5514ZM8.00088 15.4654C6.11199 13.8783 4.71221 12.4253 3.80155 11.1065C2.89088 9.78766 2.43555 8.53805 2.43555 7.35772C2.43555 5.83038 2.96927 4.50433 4.03671 3.37955C5.10427 2.25477 6.42566 1.69238 8.00088 1.69238C9.5761 1.69238 10.8975 2.25477 11.965 3.37955C13.0325 4.50433 13.5662 5.83038 13.5662 7.35772C13.5662 8.53805 13.1109 9.78766 12.2002 11.1065C11.2895 12.4253 9.88977 13.8783 8.00088 15.4654Z" fill="#6B6E78"/>
</svg>
