<svg width="16" height="17" viewBox="0 0 16 17" fill="none" xmlns="http://www.w3.org/2000/svg">
<path d="M13.1772 14.7271L8.95669 10.5064C8.62336 10.7705 8.21503 10.9776 7.73169 11.1276C7.24836 11.2776 6.76953 11.3526 6.29519 11.3526C5.04464 11.3526 3.98586 10.9192 3.11886 10.0524C2.25186 9.18565 1.81836 8.12709 1.81836 6.87676C1.81836 5.62654 2.25175 4.56765 3.11853 3.70009C3.9853 2.83265 5.04386 2.39893 6.29419 2.39893C7.54441 2.39893 8.6033 2.83243 9.47086 3.69943C10.3383 4.56643 10.772 5.6252 10.772 6.87576C10.772 7.36298 10.7005 7.83437 10.5574 8.28993C10.4141 8.74548 10.2092 9.14459 9.94253 9.48726L14.1797 13.7244L13.1772 14.7271ZM6.29519 9.91943C7.15419 9.91943 7.87619 9.62687 8.46119 9.04176C9.0463 8.45676 9.33886 7.73476 9.33886 6.87576C9.33886 6.01676 9.0463 5.29476 8.46119 4.70976C7.87619 4.12465 7.15419 3.83209 6.29519 3.83209C5.43619 3.83209 4.71419 4.12465 4.12919 4.70976C3.54408 5.29476 3.25153 6.01676 3.25153 6.87576C3.25153 7.73476 3.54408 8.45676 4.12919 9.04176C4.71419 9.62687 5.43619 9.91943 6.29519 9.91943Z" fill="#5F6368"/>
</svg>
