<svg width="24" height="25" viewBox="0 0 24 25" fill="none" xmlns="http://www.w3.org/2000/svg">
<path d="M19.7673 21.8028L13.4365 15.4718C12.9365 15.868 12.324 16.1785 11.599 16.4035C10.874 16.6285 10.1558 16.741 9.44425 16.741C7.56842 16.741 5.98025 16.091 4.67975 14.7908C3.37925 13.4906 2.729 11.9028 2.729 10.0273C2.729 8.15196 3.37909 6.56363 4.67925 5.2623C5.97942 3.96113 7.56725 3.31055 9.44275 3.31055C11.3181 3.31055 12.9064 3.9608 14.2078 5.2613C15.5089 6.5618 16.1595 8.14996 16.1595 10.0258C16.1595 10.7566 16.0522 11.4637 15.8375 12.147C15.6227 12.8304 15.3153 13.429 14.9153 13.943L21.271 20.2988L19.7673 21.8028ZM9.44425 14.5913C10.7328 14.5913 11.8158 14.1525 12.6933 13.2748C13.5709 12.3973 14.0098 11.3143 14.0098 10.0258C14.0098 8.7373 13.5709 7.6543 12.6933 6.7768C11.8158 5.89913 10.7328 5.4603 9.44425 5.4603C8.15575 5.4603 7.07275 5.89913 6.19525 6.7768C5.31759 7.6543 4.87875 8.7373 4.87875 10.0258C4.87875 11.3143 5.31759 12.3973 6.19525 13.2748C7.07275 14.1525 8.15575 14.5913 9.44425 14.5913Z" fill="#FCA211"/>
</svg>
