<svg width="25" height="24" viewBox="0 0 25 24" fill="none" xmlns="http://www.w3.org/2000/svg">
<path d="M9.39235 2.84971V0.699707H15.6078V2.84971H9.39235ZM12.5001 22.7497C11.2309 22.7497 10.0428 22.51 8.9356 22.0307C7.82843 21.5512 6.86043 20.897 6.0316 20.0682C5.20276 19.2394 4.5486 18.2714 4.0691 17.1642C3.58976 16.057 3.3501 14.8689 3.3501 13.5997C3.3501 12.3305 3.58976 11.1424 4.0691 10.0352C4.5486 8.92804 5.20276 7.96004 6.0316 7.13121C6.86043 6.30237 7.82843 5.64821 8.9356 5.16871C10.0428 4.68937 11.2309 4.44971 12.5001 4.44971C13.5249 4.44971 14.5119 4.61129 15.4611 4.93446C16.4101 5.25746 17.2904 5.73562 18.1021 6.36896L19.6231 4.84796L21.1518 6.37671L19.6308 7.89771C20.3142 8.75937 20.8215 9.67062 21.1528 10.6315C21.4843 11.5923 21.6501 12.5817 21.6501 13.5997C21.6501 14.8689 21.4104 16.057 20.9311 17.1642C20.4516 18.2714 19.7974 19.2394 18.9686 20.0682C18.1398 20.897 17.1718 21.5512 16.0646 22.0307C14.9574 22.51 13.7693 22.7497 12.5001 22.7497ZM12.5001 20.5997C14.4334 20.5997 16.0834 19.9164 17.4501 18.5497C18.8168 17.183 19.5001 15.533 19.5001 13.5997C19.5001 11.6664 18.8168 10.0164 17.4501 8.64971C16.0834 7.28304 14.4334 6.59971 12.5001 6.59971C10.5668 6.59971 8.91676 7.28304 7.5501 8.64971C6.18343 10.0164 5.5001 11.6664 5.5001 13.5997C5.5001 15.533 6.18343 17.183 7.5501 18.5497C8.91676 19.9164 10.5668 20.5997 12.5001 20.5997ZM10.6923 17.3382L16.2501 13.5997L10.6923 9.86121V17.3382Z" fill="#FCA211"/>
</svg>
