<svg width="60" height="61" viewBox="0 0 60 61" fill="none" xmlns="http://www.w3.org/2000/svg">
<rect y="0.575684" width="60" height="60" rx="4" fill="white"/>
<path d="M23.8496 29.8756V11.2756H31.0996C32.8354 11.2756 34.3028 11.875 35.5016 13.0736C36.7003 14.2725 37.2996 15.7398 37.2996 17.4756C37.2996 19.2115 36.7003 20.6871 35.5016 21.9026C34.3028 23.118 32.8354 23.7256 31.0996 23.7256H28.1496V29.8756H23.8496ZM28.1496 19.4256H31.0226C31.5601 19.4256 32.0112 19.2351 32.3759 18.8539C32.7404 18.4726 32.9226 18.0131 32.9226 17.4756C32.9226 16.9381 32.7404 16.4871 32.3759 16.1224C32.0112 15.7579 31.5601 15.5756 31.0226 15.5756H28.1496V19.4256Z" fill="#5F6368"/>
<path d="M25.1836 40.5835C25.1797 41.0288 25.3535 41.4546 25.7051 41.8608C26.0566 42.2632 26.5156 42.603 27.082 42.8804C27.6484 43.1577 28.2383 43.3413 28.8516 43.4312L28.5117 44.1577C27.9609 44.064 27.4297 43.9077 26.918 43.689C26.4102 43.4702 25.959 43.1968 25.5645 42.8687C25.1699 42.5366 24.8711 42.1675 24.668 41.7612C24.4648 42.1675 24.166 42.5347 23.7715 42.8628C23.377 43.1909 22.9258 43.4663 22.418 43.689C21.9141 43.9077 21.3906 44.064 20.8477 44.1577L20.4844 43.4312C21.0938 43.3413 21.6816 43.1577 22.248 42.8804C22.8145 42.603 23.2734 42.2632 23.625 41.8608C23.9766 41.4546 24.1523 41.0288 24.1523 40.5835V40.5132H20.8125V39.7632H28.5117V40.5132H25.1836V40.5835ZM29.4141 45.8101H25.1016V49.5249H24.1992V45.8101H19.9219V45.0483H29.4141V45.8101ZM33.7617 42.5054C33.7617 43.0522 33.873 43.5972 34.0957 44.1401C34.3184 44.6792 34.627 45.1655 35.0215 45.5991C35.4199 46.0327 35.8672 46.3687 36.3633 46.6069L35.8242 47.3218C35.2539 47.0444 34.75 46.6382 34.3125 46.103C33.8789 45.564 33.5527 44.9565 33.334 44.2808C33.1074 45.0034 32.7637 45.6519 32.3027 46.2261C31.8457 46.7964 31.3203 47.2241 30.7266 47.5093L30.1992 46.7944C30.7031 46.5601 31.1562 46.2183 31.5586 45.769C31.9648 45.3198 32.2832 44.812 32.5137 44.2456C32.748 43.6753 32.8672 43.0952 32.8711 42.5054V41.6733H30.4805V40.9233H32.8594V39.3062H33.7852V40.9233H36.1289V41.6733H33.7617V42.5054ZM38.3555 43.3843H40.1016V44.1694H38.3555V49.5249H37.4414V39.1069H38.3555V43.3843Z" fill="#6B6E78"/>
</svg>
