<svg width="24" height="21" viewBox="0 0 24 21" fill="none" xmlns="http://www.w3.org/2000/svg">
<path d="M16.2729 11.4229L14.7249 9.87492C14.8583 8.94675 14.6012 8.16467 13.9537 7.52867C13.3063 6.89284 12.5301 6.64158 11.6249 6.77492L10.0769 5.22692C10.2693 5.12558 10.5507 5.03292 10.9212 4.94892C11.2917 4.86492 11.6513 4.82292 11.9999 4.82292C13.3179 4.82292 14.4269 5.27292 15.3269 6.17292C16.2269 7.07292 16.6769 8.18192 16.6769 9.49992C16.6769 9.84858 16.6433 10.1864 16.5759 10.5134C16.5086 10.8403 16.4076 11.1434 16.2729 11.4229ZM19.5287 14.6594L17.9749 13.1249C18.6083 12.6416 19.1833 12.1041 19.6999 11.5124C20.2166 10.9208 20.6499 10.2499 20.9999 9.49992C20.1499 7.78325 18.9291 6.42075 17.3374 5.41242C15.7458 4.40408 13.9666 3.89992 11.9999 3.89992C11.5166 3.89992 11.0291 3.93325 10.5374 3.99992C10.0458 4.06658 9.58326 4.16658 9.14993 4.29992L7.45968 2.60967C8.14168 2.325 8.86634 2.11058 9.63368 1.96642C10.401 1.82208 11.1898 1.74992 11.9999 1.74992C14.5768 1.74992 16.886 2.46692 18.9277 3.90092C20.9693 5.33492 22.4473 7.20125 23.3614 9.49992C22.9743 10.5101 22.4541 11.4524 21.8009 12.3269C21.1476 13.2013 20.3902 13.9788 19.5287 14.6594ZM19.9614 20.9692L15.6154 16.6537C15.1026 16.8435 14.5426 16.9903 13.9354 17.0942C13.3284 17.198 12.6833 17.2499 11.9999 17.2499C9.41659 17.2499 7.09901 16.5329 5.04718 15.0989C2.99518 13.6649 1.52559 11.7986 0.638428 9.49992C0.990928 8.59992 1.43868 7.76342 1.98168 6.99042C2.52468 6.21725 3.14743 5.52492 3.84993 4.91342L1.03068 2.03842L2.53468 0.534668L21.4652 19.4652L19.9614 20.9692ZM5.40393 6.44217C4.92559 6.86267 4.47426 7.3265 4.04993 7.83367C3.62559 8.34067 3.27559 8.89608 2.99993 9.49992C3.84993 11.2166 5.07076 12.5791 6.66243 13.5874C8.25409 14.5958 10.0333 15.0999 11.9999 15.0999C12.3218 15.0999 12.6542 15.0781 12.9972 15.0344C13.34 14.9909 13.6018 14.9365 13.7827 14.8712L13.0172 14.0249C12.8967 14.0774 12.7409 14.1158 12.5499 14.1402C12.3589 14.1647 12.1756 14.1769 11.9999 14.1769C10.6819 14.1769 9.57293 13.7269 8.67293 12.8269C7.77293 11.9269 7.32293 10.8179 7.32293 9.49992C7.32293 9.33075 7.33518 9.15642 7.35968 8.97692C7.38401 8.79742 7.42243 8.63267 7.47493 8.48267L5.40393 6.44217Z" fill="#5F6368"/>
</svg>
