<svg width="24" height="17" viewBox="0 0 24 17" fill="none" xmlns="http://www.w3.org/2000/svg">
<path d="M12.0022 13.177C13.302 13.177 14.4061 12.7221 15.3144 11.8123C16.2228 10.9024 16.6769 9.79758 16.6769 8.49775C16.6769 7.19792 16.222 6.09383 15.3122 5.1855C14.4023 4.27717 13.2975 3.823 11.9977 3.823C10.6978 3.823 9.59376 4.27792 8.68543 5.18775C7.7771 6.09758 7.32293 7.20242 7.32293 8.50225C7.32293 9.80208 7.77784 10.9062 8.68768 11.8145C9.59751 12.7228 10.7023 13.177 12.0022 13.177ZM11.9969 11.25C11.2323 11.25 10.5833 10.9823 10.0499 10.447C9.51659 9.91167 9.24993 9.26167 9.24993 8.497C9.24993 7.73233 9.5176 7.08333 10.0529 6.55C10.5883 6.01667 11.2383 5.75 12.0029 5.75C12.7676 5.75 13.4166 6.01767 13.9499 6.553C14.4833 7.08833 14.7499 7.73833 14.7499 8.503C14.7499 9.26767 14.4823 9.91667 13.9469 10.45C13.4116 10.9833 12.7616 11.25 11.9969 11.25ZM12.0012 16.25C9.46834 16.25 7.17309 15.5448 5.11543 14.1345C3.05776 12.7243 1.56543 10.8462 0.638428 8.5C1.56543 6.15383 3.05726 4.27567 5.11393 2.8655C7.17076 1.45517 9.46568 0.75 11.9987 0.75C14.5315 0.75 16.8268 1.45517 18.8844 2.8655C20.9421 4.27567 22.4344 6.15383 23.3614 8.5C22.4344 10.8462 20.9426 12.7243 18.8859 14.1345C16.8291 15.5448 14.5342 16.25 12.0012 16.25ZM11.9999 14.1C13.9166 14.1 15.6822 13.5952 17.2967 12.5855C18.9112 11.5758 20.1456 10.214 20.9999 8.5C20.1456 6.786 18.9112 5.42417 17.2967 4.4145C15.6822 3.40483 13.9166 2.9 11.9999 2.9C10.0833 2.9 8.31768 3.40483 6.70318 4.4145C5.08868 5.42417 3.85426 6.786 2.99993 8.5C3.85426 10.214 5.08868 11.5758 6.70318 12.5855C8.31768 13.5952 10.0833 14.1 11.9999 14.1Z" fill="#5F6368"/>
</svg>
