<svg width="59" height="59" viewBox="0 0 59 59" fill="none" xmlns="http://www.w3.org/2000/svg">
<circle cx="29.5" cy="29.5" r="29.5" fill="#FEE500"/>
<path d="M29.5851 14.2375C20.407 14.2375 13.0054 20.1588 13.0054 27.3473C13.0054 32.0133 16.0845 36.099 20.7031 38.432L19.1399 44.2705C19.1104 44.358 19.1059 44.4519 19.1268 44.5419C19.1477 44.6318 19.1932 44.7142 19.2583 44.7797C19.3532 44.8634 19.4752 44.9096 19.6017 44.9099C19.7066 44.9015 19.8061 44.8601 19.886 44.7915L26.6126 40.2559C27.6055 40.3929 28.6064 40.464 29.6088 40.4689C38.775 40.4689 46.1885 34.5477 46.1885 27.3473C46.1885 20.147 38.7513 14.2375 29.5851 14.2375Z" fill="#392020"/>
<path d="M18.8078 25.2749H16.9959C16.7713 25.2814 16.5495 25.2239 16.3564 25.1091C16.2707 25.0554 16.197 24.9845 16.1399 24.9009C16.0828 24.8174 16.0437 24.7229 16.0248 24.6235C16.0191 24.5605 16.0191 24.4972 16.0248 24.4341C16.0192 24.3162 16.0421 24.1986 16.0916 24.0914C16.141 23.9842 16.2156 23.8905 16.309 23.8183C16.5155 23.6688 16.7647 23.5898 17.0196 23.5932H22.4791C22.7054 23.5853 22.9287 23.6473 23.1186 23.7709C23.2063 23.8222 23.2816 23.8925 23.339 23.9764C23.3963 24.0604 23.4343 24.156 23.4502 24.2565C23.456 24.3155 23.456 24.3751 23.4502 24.4341C23.4558 24.5538 23.4329 24.673 23.3835 24.7821C23.3341 24.8912 23.2595 24.987 23.166 25.0617C22.9645 25.211 22.7177 25.2864 22.4672 25.2749H20.7145V31.5042C20.7216 31.6369 20.7011 31.7696 20.6542 31.8939C20.6073 32.0183 20.5351 32.1316 20.4421 32.2266C20.353 32.3174 20.2458 32.3885 20.1275 32.4355C20.0092 32.4824 19.8824 32.504 19.7553 32.4989C19.5328 32.5053 19.3152 32.4342 19.1394 32.2977C18.9722 32.1643 18.8586 31.975 18.8197 31.7647C18.808 31.6782 18.808 31.5906 18.8197 31.5042L18.8078 25.2749Z" fill="#FEE500"/>
<path d="M23.9726 24.0549C24.0247 23.86 24.147 23.6913 24.316 23.5812C24.4961 23.4791 24.7013 23.4299 24.9081 23.4391H25.3582C25.5776 23.4312 25.7949 23.4845 25.9858 23.593C26.1881 23.7291 26.3319 23.9362 26.3885 24.1733L28.757 30.8645C28.8184 31.039 28.8698 31.217 28.911 31.3975C28.915 31.4724 28.915 31.5475 28.911 31.6224C28.915 31.7378 28.8937 31.8527 28.8487 31.9591C28.8037 32.0655 28.7361 32.1607 28.6504 32.2382C28.5675 32.3233 28.4678 32.3903 28.3578 32.4351C28.2478 32.48 28.1297 32.5016 28.0109 32.4987C27.8283 32.5169 27.6448 32.4731 27.4901 32.3743C27.3354 32.2755 27.2185 32.1274 27.1582 31.954L26.6609 30.4974H23.5462L23.0488 31.954C22.99 32.1308 22.8717 32.2817 22.7141 32.3811C22.5564 32.4804 22.3692 32.522 22.1843 32.4987C21.9841 32.504 21.7879 32.4414 21.6277 32.3211C21.4717 32.197 21.3664 32.0201 21.3317 31.8238C21.3254 31.7568 21.3254 31.6894 21.3317 31.6224C21.3113 31.5049 21.3113 31.3848 21.3317 31.2672C21.3317 31.1369 21.4146 30.9947 21.4619 30.8645L23.9726 24.0549ZM25.1568 25.6064L24.0318 29.1592H26.27L25.1568 25.6064Z" fill="#FEE500"/>
<path d="M29.1827 24.4341C29.1706 24.1683 29.2643 23.9086 29.4432 23.7117C29.5341 23.62 29.6433 23.5483 29.7637 23.5014C29.884 23.4545 30.0129 23.4332 30.1419 23.4392C30.3638 23.4366 30.5803 23.5075 30.7577 23.6406C30.9222 23.7795 31.0315 23.9727 31.0657 24.1853C31.0773 24.2678 31.0773 24.3516 31.0657 24.4341V30.6634H34.3224C34.5481 30.6604 34.77 30.7219 34.9619 30.8409C35.0481 30.894 35.1222 30.9648 35.1793 31.0485C35.2364 31.1321 35.2753 31.2268 35.2935 31.3265C35.2935 31.3265 35.2935 31.4449 35.2935 31.5041C35.2991 31.6221 35.2762 31.7396 35.2267 31.8468C35.1773 31.954 35.1027 32.0478 35.0093 32.12C34.8028 32.2695 34.5536 32.3484 34.2987 32.3449H30.2959C30.0409 32.3613 29.7875 32.295 29.5735 32.1556C29.382 32.0124 29.2544 31.7997 29.2182 31.5634C29.2095 31.4333 29.2095 31.3026 29.2182 31.1725L29.1827 24.4341Z" fill="#FEE500"/>
<path d="M35.5066 24.4342C35.4995 24.1692 35.5925 23.9113 35.7671 23.7119C35.9446 23.5506 36.1723 23.4553 36.4118 23.4424C36.6512 23.4294 36.8878 23.4995 37.0817 23.6407C37.2497 23.7784 37.3631 23.9716 37.4014 24.1854C37.4073 24.2682 37.4073 24.3514 37.4014 24.4342V27.3356L40.3976 23.8775C40.513 23.7596 40.6357 23.6489 40.7647 23.546C40.8864 23.4736 41.0258 23.4366 41.1674 23.4394C41.3744 23.4382 41.5768 23.5002 41.7477 23.617C41.8282 23.6712 41.897 23.7412 41.9499 23.8226C42.0028 23.904 42.0387 23.9952 42.0556 24.0908C42.0604 24.1142 42.0604 24.1384 42.0556 24.1619C42.0498 24.1892 42.0498 24.2174 42.0556 24.2447C42.0552 24.3693 42.0225 24.4918 41.9608 24.6001C41.898 24.7147 41.8225 24.8218 41.7358 24.9197L39.7699 27.0751L42.1385 30.7463V30.8647C42.2615 31.0344 42.3573 31.2223 42.4227 31.4214V31.4806C42.4364 31.6178 42.4166 31.7563 42.3651 31.8842C42.3135 32.0121 42.2317 32.1255 42.1266 32.2148C41.9291 32.3641 41.6874 32.4434 41.4398 32.4399C41.2752 32.4467 41.1118 32.4098 40.9661 32.3332C40.8083 32.2274 40.6784 32.0853 40.5871 31.9187L38.3844 28.3659L37.3304 29.4674V31.445C37.3374 31.71 37.2444 31.9679 37.0698 32.1674C36.9762 32.2589 36.8649 32.3303 36.7427 32.3772C36.6205 32.424 36.49 32.4454 36.3593 32.4399C36.1407 32.4445 35.9274 32.3733 35.7553 32.2385C35.588 32.1052 35.4745 31.916 35.4355 31.7057C35.4238 31.6192 35.4238 31.5315 35.4355 31.445L35.5066 24.4342Z" fill="#FEE500"/>
</svg>
