<svg width="72" height="72" viewBox="0 0 72 72" fill="none" xmlns="http://www.w3.org/2000/svg">
<rect width="72" height="72" rx="36" fill="#FCA211" fill-opacity="0.2"/>
<path d="M38.7305 41.3711H34.2305L33.7734 23.5469H39.1875L38.7305 41.3711ZM36.5156 49.3164C35.9766 49.3164 35.4785 49.1816 35.0215 48.9121C34.5645 48.6426 34.2012 48.2852 33.9316 47.8398C33.6738 47.3828 33.5508 46.8906 33.5625 46.3633C33.5508 45.8359 33.6738 45.3496 33.9316 44.9043C34.2012 44.459 34.5645 44.1074 35.0215 43.8496C35.4785 43.5801 35.9766 43.4453 36.5156 43.4453C37.0195 43.4453 37.4941 43.5801 37.9395 43.8496C38.3965 44.1074 38.7598 44.459 39.0293 44.9043C39.2988 45.3496 39.4336 45.8359 39.4336 46.3633C39.4336 46.8906 39.2988 47.3828 39.0293 47.8398C38.7598 48.2852 38.3965 48.6426 37.9395 48.9121C37.4941 49.1816 37.0195 49.3164 36.5156 49.3164Z" fill="#FCA211"/>
</svg>
