<svg width="12" height="11" viewBox="0 0 12 11" fill="none" xmlns="http://www.w3.org/2000/svg">
<path d="M11.3839 0.191406V4.29141H9.95052V2.64391L7.41585 5.17224C7.60963 5.48757 7.76385 5.82163 7.87852 6.17441C7.99319 6.52718 8.05052 6.88285 8.05052 7.24141C8.05052 8.27752 7.69019 9.15602 6.96952 9.87691C6.24874 10.5977 5.37035 10.9581 4.33435 10.9581C3.29835 10.9581 2.41985 10.5977 1.69885 9.87707C0.977743 9.15629 0.617188 8.27791 0.617188 7.24191C0.617188 6.20591 0.977576 5.32741 1.69835 4.60641C2.41924 3.8853 3.29774 3.52474 4.33385 3.52474C4.70152 3.52474 5.05841 3.58329 5.40452 3.70041C5.75052 3.81752 6.08335 3.97052 6.40302 4.15941L8.93769 1.62474H7.28385V0.191406H11.3839ZM4.33285 4.95807C3.70185 4.95807 3.16374 5.18107 2.71852 5.62707C2.27319 6.07307 2.05052 6.61152 2.05052 7.24241C2.05052 7.87341 2.27352 8.41152 2.71952 8.85674C3.16552 9.30207 3.70396 9.52474 4.33485 9.52474C4.96585 9.52474 5.50397 9.30174 5.94919 8.85574C6.39452 8.40974 6.61719 7.87129 6.61719 7.24041C6.61719 6.60941 6.39419 6.07129 5.94819 5.62607C5.50219 5.18074 4.96374 4.95807 4.33285 4.95807Z" fill="#0D6EFD"/>
</svg>
