<svg width="60" height="61" viewBox="0 0 60 61" fill="none" xmlns="http://www.w3.org/2000/svg">
<rect y="0.575684" width="60" height="60" rx="4" fill="white"/>
<path d="M23.3273 30.9757V23.2757H21.5273V17.6757C21.5273 17.0936 21.7328 16.5981 22.1438 16.1892C22.5548 15.7802 23.0528 15.5757 23.6378 15.5757H27.0246C27.6098 15.5757 28.1058 15.7802 28.5128 16.1892C28.9198 16.5981 29.1233 17.0936 29.1233 17.6757V23.2757H27.3233V30.9757H23.3273ZM25.3003 14.5565C24.7055 14.5565 24.2158 14.3642 23.8311 13.9795C23.4464 13.595 23.2541 13.1053 23.2541 12.5105C23.2541 11.9155 23.4464 11.4257 23.8311 11.0412C24.2158 10.6566 24.7055 10.4642 25.3003 10.4642C25.8952 10.4642 26.3849 10.6566 26.7696 11.0412C27.1543 11.4257 27.3466 11.9155 27.3466 12.5105C27.3466 13.1053 27.1543 13.595 26.7696 13.9795C26.3849 14.3642 25.8952 14.5565 25.3003 14.5565ZM33.4253 30.9757V24.8257H30.5388L32.9196 17.0027C33.0671 16.5604 33.3302 16.212 33.7088 15.9575C34.0875 15.703 34.518 15.5757 35.0003 15.5757C35.4827 15.5757 35.9132 15.703 36.2918 15.9575C36.6705 16.212 36.9336 16.5604 37.0811 17.0027L39.4618 24.8257H36.5753V30.9757H33.4253ZM35.0003 14.5565C34.4055 14.5565 33.9158 14.3642 33.5311 13.9795C33.1464 13.595 32.9541 13.1053 32.9541 12.5105C32.9541 11.9155 33.1464 11.4257 33.5311 11.0412C33.9158 10.6566 34.4055 10.4642 35.0003 10.4642C35.5952 10.4642 36.0849 10.6566 36.4696 11.0412C36.8543 11.4257 37.0466 11.9155 37.0466 12.5105C37.0466 13.1053 36.8543 13.595 36.4696 13.9795C36.0849 14.3642 35.5952 14.5565 35.0003 14.5565Z" fill="#5F6368"/>
<path d="M22.9512 43.5483H24.6152V44.3218H22.9512V49.5249H22.0254V39.1069H22.9512V43.5483ZM14.7363 46.7476C15.9629 46.7476 16.9199 46.7358 17.6074 46.7124V45.5581C17.2051 45.5112 16.8516 45.4058 16.5469 45.2417C16.2461 45.0737 16.0137 44.8569 15.8496 44.5913C15.6895 44.3218 15.6113 44.0171 15.6152 43.6772C15.6113 43.2905 15.7109 42.9526 15.9141 42.6636C16.1211 42.3706 16.4102 42.144 16.7812 41.9839C17.1562 41.8237 17.5879 41.7437 18.0762 41.7437C18.5566 41.7437 18.9824 41.8237 19.3535 41.9839C19.7285 42.144 20.0195 42.3706 20.2266 42.6636C20.4375 42.9526 20.5449 43.2905 20.5488 43.6772C20.5449 44.0171 20.459 44.3218 20.291 44.5913C20.123 44.8569 19.8867 45.0737 19.582 45.2417C19.2812 45.4097 18.9316 45.5171 18.5332 45.564V46.6772C19.6426 46.6226 20.5957 46.5366 21.3926 46.4194L21.4512 47.1226C20.4434 47.2944 19.4082 47.4058 18.3457 47.4565C17.2832 47.5073 16.1309 47.5327 14.8887 47.5327L14.7363 46.7476ZM21.2051 41.1343H14.9238V40.3843H17.6074V39.1304H18.5332V40.3843H21.2051V41.1343ZM18.0762 42.4585C17.7598 42.4585 17.4805 42.5093 17.2383 42.6108C16.9961 42.7124 16.8066 42.8569 16.6699 43.0444C16.5371 43.228 16.4707 43.439 16.4707 43.6772C16.4707 43.9155 16.5371 44.1265 16.6699 44.3101C16.8027 44.4897 16.9902 44.6284 17.2324 44.7261C17.4785 44.8198 17.7598 44.8647 18.0762 44.8608C18.3887 44.8647 18.666 44.8198 18.9082 44.7261C19.1504 44.6284 19.3379 44.4897 19.4707 44.3101C19.6035 44.1265 19.6699 43.9155 19.6699 43.6772C19.6699 43.439 19.6035 43.228 19.4707 43.0444C19.3379 42.8569 19.1504 42.7124 18.9082 42.6108C18.666 42.5093 18.3887 42.4585 18.0762 42.4585ZM28.7637 41.0874C28.7637 41.5366 28.8691 41.9663 29.0801 42.3765C29.2949 42.7827 29.5938 43.1421 29.9766 43.4546C30.3633 43.7632 30.8105 44.0015 31.3184 44.1694L30.8848 44.896C30.291 44.7007 29.7715 44.4058 29.3262 44.0112C28.8848 43.6167 28.5508 43.1538 28.3242 42.6226C28.1016 43.2202 27.7598 43.7437 27.2988 44.1929C26.8379 44.6382 26.2949 44.9741 25.6699 45.2007L25.2012 44.4624C25.7168 44.2866 26.1758 44.0288 26.5781 43.689C26.9805 43.3491 27.293 42.9546 27.5156 42.5054C27.7422 42.0522 27.8574 41.5796 27.8613 41.0874V40.6421H25.4824V39.8804H31.1074V40.6421H28.7637V41.0874ZM33.3809 41.7671H34.9512V42.5405H33.3809V45.3999H32.4668V39.1069H33.3809V41.7671ZM30.041 45.6812C30.752 45.6812 31.3652 45.7573 31.8809 45.9097C32.3965 46.0581 32.791 46.2749 33.0645 46.5601C33.3379 46.8452 33.4746 47.1851 33.4746 47.5796C33.4746 47.9819 33.3379 48.3276 33.0645 48.6167C32.791 48.9058 32.3965 49.1245 31.8809 49.2729C31.3652 49.4253 30.752 49.5015 30.041 49.5015C29.3301 49.5015 28.7148 49.4253 28.1953 49.2729C27.6758 49.1245 27.2773 48.9058 27 48.6167C26.7227 48.3276 26.584 47.9819 26.584 47.5796C26.584 47.1851 26.7227 46.8452 27 46.5601C27.2773 46.2749 27.6758 46.0581 28.1953 45.9097C28.7148 45.7573 29.3301 45.6812 30.041 45.6812ZM30.041 46.4194C29.5215 46.4194 29.0703 46.4663 28.6875 46.5601C28.3047 46.6499 28.0117 46.7827 27.8086 46.9585C27.6055 47.1343 27.5059 47.3413 27.5098 47.5796C27.5059 47.8257 27.6055 48.0386 27.8086 48.2183C28.0117 48.394 28.3027 48.5288 28.6816 48.6226C29.0645 48.7163 29.5176 48.7632 30.041 48.7632C30.5684 48.7632 31.0215 48.7163 31.4004 48.6226C31.7832 48.5288 32.0762 48.394 32.2793 48.2183C32.4824 48.0386 32.584 47.8257 32.584 47.5796C32.584 47.3374 32.4824 47.1304 32.2793 46.9585C32.0762 46.7827 31.7832 46.6499 31.4004 46.5601C31.0176 46.4663 30.5645 46.4194 30.041 46.4194ZM44.1973 44.5093H43.2949V39.1069H44.1973V44.5093ZM44.209 47.5327H38.3613V48.6577H44.584V49.4077H37.459V46.8179H43.2949V45.7749H37.4355V45.0366H44.209V47.5327ZM39.2988 40.2085C39.2949 40.6929 39.4062 41.1538 39.6328 41.5913C39.8594 42.0288 40.1738 42.4136 40.5762 42.7456C40.9824 43.0737 41.4434 43.3218 41.959 43.4897L41.502 44.2046C40.8887 43.9976 40.3496 43.6851 39.8848 43.2671C39.4238 42.8452 39.0762 42.353 38.8418 41.7905C38.6074 42.396 38.2559 42.9272 37.7871 43.3843C37.3184 43.8413 36.7754 44.1812 36.1582 44.4038L35.6777 43.6772C36.1973 43.4937 36.6602 43.228 37.0664 42.8804C37.4727 42.5288 37.7891 42.1226 38.0156 41.6616C38.2461 41.1968 38.3613 40.7124 38.3613 40.2085V39.4116H39.2988V40.2085Z" fill="#6B6E78"/>
</svg>
