<svg width="60" height="61" viewBox="0 0 60 61" fill="none" xmlns="http://www.w3.org/2000/svg">
<rect y="0.575684" width="60" height="60" rx="4" fill="white"/>
<g clip-path="url(#clip0_570_4024)">
<path d="M29.9978 31.0122C29.4176 31.0122 28.9281 30.8119 28.5293 30.4114C28.1306 30.0108 27.9313 29.5204 27.9313 28.9402C27.9313 28.36 28.1316 27.8706 28.5323 27.4719C28.9328 27.0733 29.4231 26.8739 30.0033 26.8739C30.5835 26.8739 31.073 27.0742 31.4718 27.4747C31.8705 27.8754 32.0698 28.3658 32.0698 28.9459C32.0698 29.5261 31.8695 30.0155 31.4688 30.4142C31.0683 30.8129 30.578 31.0122 29.9978 31.0122ZM24.2506 25.2007L21.9891 22.9584C23.0147 21.9328 24.2133 21.1116 25.5848 20.4949C26.9565 19.8783 28.4289 19.5699 30.0021 19.5699C31.5754 19.5699 33.0473 19.8767 34.4178 20.4902C35.7883 21.1037 36.9864 21.92 38.0121 22.9392L35.7506 25.2007C35.0081 24.4517 34.1474 23.8644 33.1686 23.4389C32.1899 23.0134 31.1339 22.8007 30.0006 22.8007C28.8672 22.8007 27.8111 23.0134 26.8323 23.4389C25.8536 23.8644 24.9931 24.4517 24.2506 25.2007ZM18.5506 19.5257L16.2891 17.2642C18.0352 15.5309 20.0686 14.1485 22.3891 13.1172C24.7096 12.0857 27.2467 11.5699 30.0006 11.5699C32.7544 11.5699 35.2916 12.0899 37.6121 13.1297C39.9326 14.1694 41.9659 15.5559 43.7121 17.2892L41.4506 19.5507C40.0006 18.1007 38.2964 16.9465 36.3381 16.0882C34.3797 15.2299 32.2672 14.8007 30.0006 14.8007C27.7339 14.8007 25.6214 15.2257 23.6631 16.0757C21.7047 16.9257 20.0006 18.0757 18.5506 19.5257Z" fill="#5F6368"/>
</g>
<path d="M12.5156 45.9272H8.16797V49.5249H7.26562V45.9272H2.97656V45.1655H12.5156V45.9272ZM11.2734 43.7476H4.20703V39.6929H11.2734V43.7476ZM5.10938 43.021H10.3594V40.4429H5.10938V43.021ZM16.9219 41.0757C16.9219 41.5562 17.0293 42.021 17.2441 42.4702C17.4629 42.9155 17.7676 43.312 18.1582 43.6597C18.5488 44.0034 18.9961 44.2671 19.5 44.4507L18.9844 45.1655C18.4141 44.939 17.9102 44.6089 17.4727 44.1753C17.0391 43.7378 16.709 43.2358 16.4824 42.6694C16.2637 43.2983 15.9258 43.853 15.4688 44.3335C15.0117 44.814 14.4766 45.1772 13.8633 45.4233L13.3711 44.6733C13.8867 44.4819 14.3438 44.2026 14.7422 43.8354C15.1406 43.4683 15.4512 43.0425 15.6738 42.5581C15.9004 42.0737 16.0156 41.5679 16.0195 41.0405V39.7515H16.9219V41.0757ZM21.9961 46.9233H21.0703V42.3413H18.75V41.5679H21.0703V39.1187H21.9961V46.9233ZM22.2305 49.3022H15.2578V46.0327H16.1836V48.5288H22.2305V49.3022ZM35.3438 46.7358H34.4297V39.1187H35.3438V46.7358ZM35.6719 49.3022H28.6172V45.9624H29.5312V48.5288H35.6719V49.3022ZM29.7188 39.8452C30.2344 39.8452 30.6992 39.9546 31.1133 40.1733C31.5312 40.3882 31.8574 40.6909 32.0918 41.0815C32.3301 41.4683 32.4492 41.9077 32.4492 42.3999C32.4492 42.8999 32.3301 43.3452 32.0918 43.7358C31.8574 44.1226 31.5312 44.4253 31.1133 44.644C30.6992 44.8589 30.2344 44.9663 29.7188 44.9663C29.2031 44.9663 28.7363 44.8589 28.3184 44.644C27.9043 44.4253 27.5781 44.1226 27.3398 43.7358C27.1055 43.3452 26.9883 42.8999 26.9883 42.3999C26.9883 41.9077 27.1055 41.4683 27.3398 41.0815C27.5781 40.6909 27.9043 40.3882 28.3184 40.1733C28.7363 39.9546 29.2031 39.8452 29.7188 39.8452ZM29.7188 40.6538C29.3711 40.6538 29.0566 40.728 28.7754 40.8765C28.498 41.0249 28.2793 41.2319 28.1191 41.4976C27.9629 41.7632 27.8867 42.064 27.8906 42.3999C27.8867 42.7397 27.9629 43.0444 28.1191 43.314C28.2793 43.5796 28.498 43.7866 28.7754 43.9351C29.0566 44.0835 29.3711 44.1577 29.7188 44.1577C30.0586 44.1577 30.3672 44.0835 30.6445 43.9351C30.9258 43.7866 31.1465 43.5796 31.3066 43.314C31.4668 43.0444 31.5469 42.7397 31.5469 42.3999C31.5469 42.0679 31.4668 41.769 31.3066 41.5034C31.1465 41.2378 30.9258 41.0308 30.6445 40.8823C30.3672 40.73 30.0586 40.6538 29.7188 40.6538ZM45.75 49.5483H44.8359V43.8062H42.6328V43.0444H44.8359V39.1069H45.75V49.5483ZM42.457 40.8296H38.5195V42.9976H42V43.7476H38.5195V46.2671C39.5156 46.2671 40.3516 46.2456 41.0273 46.2026C41.707 46.1558 42.3945 46.0718 43.0898 45.9507L43.1953 46.7124C42.457 46.8335 41.7305 46.9175 41.0156 46.9644C40.3008 47.0073 39.4258 47.0288 38.3906 47.0288H37.5938V40.0679H42.457V40.8296ZM48.9609 44.0874C49.5625 44.0796 50.1367 44.0522 50.6836 44.0054C51.2305 43.9546 51.793 43.8687 52.3711 43.7476L52.4648 44.5093C51.8086 44.646 51.1836 44.7417 50.5898 44.7964C50 44.8472 49.3711 44.8726 48.7031 44.8726H48.0469V40.0562H48.9609V44.0874ZM56.3555 46.1733H55.4766V39.1187H56.3555V46.1733ZM54.2695 45.2358H53.3906V42.2476H51.1406V41.4976H53.3906V39.3296H54.2695V45.2358ZM53.3203 46.0093C53.3203 46.4507 53.4883 46.8647 53.8242 47.2515C54.1602 47.6382 54.6016 47.9644 55.1484 48.23C55.6992 48.4956 56.2812 48.6733 56.8945 48.7632L56.543 49.478C56.0156 49.3882 55.5098 49.2417 55.0254 49.0386C54.5449 48.8394 54.1152 48.5894 53.7363 48.2886C53.3613 47.9839 53.0703 47.644 52.8633 47.269C52.6562 47.644 52.3633 47.9839 51.9844 48.2886C51.6094 48.5894 51.1797 48.8394 50.6953 49.0386C50.2148 49.2417 49.7109 49.3882 49.1836 49.478L48.832 48.7632C49.4453 48.6733 50.0254 48.4956 50.5723 48.23C51.123 47.9644 51.5664 47.6382 51.9023 47.2515C52.2383 46.8647 52.4062 46.4507 52.4062 46.0093V45.6226H53.3203V46.0093Z" fill="#6B6E78"/>
<defs>
<clipPath id="clip0_570_4024">
<rect width="24" height="24" fill="white" transform="translate(18 8.57568)"/>
</clipPath>
</defs>
</svg>
