<svg width="16" height="17" viewBox="0 0 16 17" fill="none" xmlns="http://www.w3.org/2000/svg">
<path d="M13.3839 3.19141V7.29141H11.9505V5.64391L9.41585 8.17224C9.60963 8.48757 9.76385 8.82163 9.87852 9.17441C9.99319 9.52718 10.0505 9.88285 10.0505 10.2414C10.0505 11.2775 9.69019 12.156 8.96952 12.8769C8.24874 13.5977 7.37035 13.9581 6.33435 13.9581C5.29835 13.9581 4.41985 13.5977 3.69885 12.8771C2.97774 12.1563 2.61719 11.2779 2.61719 10.2419C2.61719 9.20591 2.97758 8.32741 3.69835 7.60641C4.41924 6.8853 5.29774 6.52474 6.33385 6.52474C6.70152 6.52474 7.05841 6.58329 7.40452 6.70041C7.75052 6.81752 8.08335 6.97052 8.40302 7.15941L10.9377 4.62474H9.28385V3.19141H13.3839ZM6.33285 7.95807C5.70185 7.95807 5.16374 8.18107 4.71852 8.62707C4.27319 9.07307 4.05052 9.61152 4.05052 10.2424C4.05052 10.8734 4.27352 11.4115 4.71952 11.8567C5.16552 12.3021 5.70397 12.5247 6.33485 12.5247C6.96585 12.5247 7.50397 12.3017 7.94919 11.8557C8.39452 11.4097 8.61719 10.8713 8.61719 10.2404C8.61719 9.60941 8.39419 9.07129 7.94819 8.62607C7.50219 8.18074 6.96374 7.95807 6.33285 7.95807Z" fill="#DC3545"/>
</svg>
