<svg width="80" height="81" viewBox="0 0 80 81" fill="none" xmlns="http://www.w3.org/2000/svg">
<path fill-rule="evenodd" clip-rule="evenodd" d="M40 80.9375C62.0914 80.9375 80 63.0289 80 40.9375C80 18.8461 62.0914 0.9375 40 0.9375C17.9086 0.9375 0 18.8461 0 40.9375C0 63.0289 17.9086 80.9375 40 80.9375ZM37.9661 56.8819V61.6042H55.2606C56.7761 61.6042 58.0561 61.0892 59.1006 60.0592C60.1446 59.0292 60.6667 57.7636 60.6667 56.2625V53.6297C61.3133 53.2138 61.8454 52.7038 62.2628 52.0997C62.6802 51.4956 62.8889 50.7892 62.8889 49.9803V45.0186C62.8889 44.2442 62.6802 43.5538 62.2628 42.9475C61.8454 42.3412 61.3133 41.8295 60.6667 41.4125L60.5639 39.0097C60.3587 36.3605 59.6728 33.8899 58.5061 31.5981C57.3394 29.3058 55.8359 27.3179 53.9956 25.6342C52.1552 23.9505 50.0391 22.6264 47.6472 21.6619C45.2557 20.6975 42.7067 20.2153 40 20.2153C37.2933 20.2153 34.757 20.6975 32.3911 21.6619C30.0248 22.6264 27.9144 23.9562 26.06 25.6514C24.2052 27.3466 22.695 29.3364 21.5294 31.6208C20.3639 33.9053 19.6846 36.3869 19.4917 39.0658L19.3889 41.5703C18.7281 42.0088 18.1833 42.5464 17.7544 43.1831C17.3256 43.8201 17.1111 44.536 17.1111 45.3308V49.6469C17.1111 50.911 17.5637 51.9849 18.4689 52.8686C19.3737 53.7519 20.4581 54.1936 21.7222 54.1936H24.1111V40.3631C24.1111 36.0564 25.6681 32.4231 28.7822 29.4631C31.8959 26.5031 35.6352 25.0231 40 25.0231C44.3648 25.0231 48.1133 26.5031 51.2456 29.4631C54.3781 32.4231 55.9444 36.0642 55.9444 40.3864V56.2625C55.9444 56.4477 55.8769 56.5971 55.7417 56.7108C55.6061 56.8249 55.4457 56.8819 55.2606 56.8819H37.9661ZM31.8694 45.9586C32.4009 46.4545 33.0326 46.7025 33.7644 46.7025C34.4967 46.7025 35.1178 46.4545 35.6278 45.9586C36.1381 45.4627 36.3933 44.8486 36.3933 44.1164C36.3933 43.3845 36.1381 42.7566 35.6278 42.2325C35.1178 41.7081 34.4967 41.4458 33.7644 41.4458C33.0326 41.4458 32.4009 41.7081 31.8694 42.2325C31.3383 42.7566 31.0728 43.3845 31.0728 44.1164C31.0728 44.8486 31.3383 45.4627 31.8694 45.9586ZM44.4039 45.9586C44.935 46.4545 45.5667 46.7025 46.2989 46.7025C47.0307 46.7025 47.6519 46.4545 48.1622 45.9586C48.6722 45.4627 48.9272 44.8486 48.9272 44.1164C48.9272 43.3845 48.6722 42.7566 48.1622 42.2325C47.6519 41.7081 47.0307 41.4458 46.2989 41.4458C45.5667 41.4458 44.935 41.7081 44.4039 42.2325C43.8724 42.7566 43.6067 43.3845 43.6067 44.1164C43.6067 44.8486 43.8724 45.4627 44.4039 45.9586ZM30.3244 32.0442C27.7237 35.0131 26.5572 38.496 26.825 42.4931C29.4143 41.496 31.7061 40.0473 33.7006 38.1469C35.695 36.2466 37.1039 33.9703 37.9272 31.3181C39.6194 33.8821 41.8528 35.8356 44.6272 37.1786C47.4013 38.5212 50.3431 39.2114 53.4528 39.2492C52.8746 35.8847 51.3491 33.1006 48.8761 30.8969C46.4035 28.6932 43.4815 27.5914 40.11 27.5914C36.1874 27.5914 32.9256 29.0756 30.3244 32.0442Z" fill="#FCA211"/>
</svg>
