<svg width="32" height="32" viewBox="0 0 32 32" fill="none" xmlns="http://www.w3.org/2000/svg">
<path fill-rule="evenodd" clip-rule="evenodd" d="M16 32C24.8366 32 32 24.8366 32 16C32 7.16344 24.8366 0 16 0C7.16344 0 0 7.16344 0 16C0 24.8366 7.16344 32 16 32ZM15.0647 23.14V25.265H22.8472C23.5293 25.265 24.1052 25.0333 24.5753 24.5697C25.0451 24.1063 25.28 23.5368 25.28 22.8612V21.6765C25.571 21.4893 25.8104 21.2598 25.9983 20.988C26.1861 20.7162 26.28 20.3983 26.28 20.0343V17.8015C26.28 17.453 26.1861 17.1423 25.9983 16.8695C25.8104 16.5967 25.571 16.3664 25.28 16.1787L25.2338 15.0975C25.1414 13.9053 24.8327 12.7936 24.3077 11.7622C23.7827 10.7308 23.1062 9.83617 22.278 9.0785C21.4498 8.32083 20.4976 7.725 19.4213 7.291C18.3451 6.857 17.198 6.64 15.98 6.64C14.762 6.64 13.6207 6.857 12.556 7.291C11.4912 7.725 10.5415 8.32342 9.707 9.08625C8.87233 9.84908 8.19275 10.7445 7.66825 11.7725C7.14375 12.8005 6.83808 13.9173 6.75125 15.1228L6.705 16.2498C6.40767 16.4471 6.1625 16.689 5.9695 16.9755C5.7765 17.2622 5.68 17.5843 5.68 17.942V19.8843C5.68 20.4531 5.88367 20.9363 6.291 21.334C6.69817 21.7315 7.18617 21.9303 7.755 21.9303H8.83V15.7065C8.83 13.7685 9.53067 12.1335 10.932 10.8015C12.3332 9.4695 14.0158 8.8035 15.98 8.8035C17.9442 8.8035 19.631 9.4695 21.0405 10.8015C22.4502 12.1335 23.155 13.772 23.155 15.717V22.8612C23.155 22.9446 23.1246 23.0118 23.0637 23.063C23.0027 23.1143 22.9306 23.14 22.8472 23.14H15.0647ZM12.3212 18.2245C12.5604 18.4477 12.8447 18.5592 13.174 18.5592C13.5035 18.5592 13.783 18.4477 14.0125 18.2245C14.2422 18.0013 14.357 17.725 14.357 17.3955C14.357 17.0662 14.2422 16.7836 14.0125 16.5478C13.783 16.3118 13.5035 16.1938 13.174 16.1938C12.8447 16.1938 12.5604 16.3118 12.3212 16.5478C12.0822 16.7836 11.9627 17.0662 11.9627 17.3955C11.9627 17.725 12.0822 18.0013 12.3212 18.2245ZM17.9618 18.2245C18.2008 18.4477 18.485 18.5592 18.8145 18.5592C19.1438 18.5592 19.4233 18.4477 19.653 18.2245C19.8825 18.0013 19.9973 17.725 19.9973 17.3955C19.9973 17.0662 19.8825 16.7836 19.653 16.5478C19.4233 16.3118 19.1438 16.1938 18.8145 16.1938C18.485 16.1938 18.2008 16.3118 17.9618 16.5478C17.7226 16.7836 17.603 17.0662 17.603 17.3955C17.603 17.725 17.7226 18.0013 17.9618 18.2245ZM11.626 11.963C10.4557 13.299 9.93075 14.8663 10.0513 16.665C11.2164 16.2163 12.2477 15.5644 13.1452 14.7093C14.0427 13.8541 14.6768 12.8297 15.0472 11.6362C15.8088 12.7901 16.8137 13.6692 18.0623 14.2735C19.3106 14.8777 20.6344 15.1882 22.0338 15.2052C21.7736 13.6912 21.0871 12.4384 19.9743 11.4468C18.8616 10.4551 17.5467 9.95925 16.0295 9.95925C14.2643 9.95925 12.7965 10.6272 11.626 11.963Z" fill="#FCA211"/>
</svg>
