<svg width="32" height="32" viewBox="0 0 32 32" fill="none" xmlns="http://www.w3.org/2000/svg">
<path fill-rule="evenodd" clip-rule="evenodd" d="M16 32C24.8366 32 32 24.8366 32 16C32 7.16344 24.8366 0 16 0C7.16344 0 0 7.16344 0 16C0 24.8366 7.16344 32 16 32ZM8.79625 14.948V24.3H15.1345V18.1845H16.8655V24.3H23.1885V14.948L26.0077 17.1L27.3095 15.3787L23.1402 12.1693V7.7H20.048V9.7865L16 6.7L4.7 15.3787L5.977 17.1L8.79625 14.948ZM12.9848 22.15H10.9462V13.2922L16 9.41525L21.0635 13.2922V22.15H19.0152V16.0347H12.9848V22.15ZM17.4738 12.7422C17.8938 13.1064 18.1038 13.5642 18.1038 14.1155H13.8962C13.8962 13.563 14.1074 13.105 14.5297 12.7415C14.9523 12.378 15.4435 12.1962 16.0035 12.1962C16.5637 12.1962 17.0538 12.3783 17.4738 12.7422Z" fill="#FCA211"/>
</svg>
