<svg width="24" height="24" viewBox="0 0 24 24" fill="none" xmlns="http://www.w3.org/2000/svg">
<path d="M11.9742 15.9387L6.70497 10.6694L8.23397 9.15995L10.8992 11.8252V3.7002H13.0492V11.8252L15.7145 9.15995L17.2435 10.6694L11.9742 15.9387ZM6.15697 20.3002C5.47314 20.3002 4.89255 20.0615 4.41522 19.5842C3.93789 19.1069 3.69922 18.5263 3.69922 17.8424V15.1309H5.84922V17.8424C5.84922 17.9194 5.8813 17.9899 5.94547 18.0539C6.00947 18.1181 6.07997 18.1502 6.15697 18.1502H17.8415C17.9185 18.1502 17.989 18.1181 18.053 18.0539C18.1171 17.9899 18.1492 17.9194 18.1492 17.8424V15.1309H20.2992V17.8424C20.2992 18.5309 20.0606 19.1127 19.5832 19.5877C19.1059 20.0627 18.5253 20.3002 17.8415 20.3002H6.15697Z" fill="#FFFBEA"/>
</svg>
