<svg width="24" height="24" viewBox="0 0 24 24" fill="none" xmlns="http://www.w3.org/2000/svg">
<path d="M5.1577 22.25C4.47387 22.25 3.89328 22.0113 3.41595 21.534C2.93862 21.0567 2.69995 20.4761 2.69995 19.7922V6.10773C2.69995 5.4239 2.93862 4.84332 3.41595 4.36599C3.89328 3.88865 4.47387 3.64998 5.1577 3.64998H5.7422V1.63474H7.9307V3.64998H16.1077V1.63474H18.2577V3.64998H18.8422C19.526 3.64998 20.1066 3.88865 20.584 4.36599C21.0613 4.84332 21.3 5.4239 21.3 6.10773V19.7922C21.3 20.4761 21.0613 21.0567 20.584 21.534C20.1066 22.0113 19.526 22.25 18.8422 22.25H5.1577ZM5.1577 20.1H18.8422C18.9192 20.1 18.9897 20.0679 19.0537 20.0037C19.1179 19.9397 19.15 19.8692 19.15 19.7922V9.80773H4.84995V19.7922C4.84995 19.8692 4.88203 19.9397 4.9462 20.0037C5.0102 20.0679 5.0807 20.1 5.1577 20.1ZM4.84995 7.65773H19.15V6.10773C19.15 6.03073 19.1179 5.96023 19.0537 5.89623C18.9897 5.83207 18.9192 5.79998 18.8422 5.79998H5.1577C5.0807 5.79998 5.0102 5.83207 4.9462 5.89623C4.88203 5.96023 4.84995 6.03073 4.84995 6.10773V7.65773Z" fill="#5F6368"/>
</svg>
