<svg width="24" height="24" viewBox="0 0 24 24" fill="none" xmlns="http://www.w3.org/2000/svg">
<path d="M6.4249 20.25C4.8429 20.25 3.4849 19.7081 2.3509 18.6242C1.2169 17.5404 0.649902 16.2061 0.649902 14.6213C0.649902 13.2622 1.06207 12.0529 1.8864 10.9932C2.71074 9.93358 3.75624 9.26658 5.0229 8.99225C5.4934 7.44742 6.37007 6.1875 7.6529 5.2125C8.93557 4.2375 10.3846 3.75 11.9999 3.75C13.8939 3.75 15.5299 4.389 16.9079 5.667C18.2859 6.945 19.0666 8.531 19.2499 10.425V10.925H19.5577C20.6615 11.1237 21.5695 11.6558 22.2817 12.5213C22.9938 13.3866 23.3499 14.3962 23.3499 15.55C23.3499 16.8598 22.8948 17.9706 21.9847 18.8822C21.0745 19.7941 19.961 20.25 18.6442 20.25H13.3827C12.6988 20.25 12.1182 20.0113 11.6409 19.534C11.1636 19.0567 10.9249 18.4761 10.9249 17.7923V13.0153L9.3499 14.5345L7.84615 13.0405L11.9999 8.8865L16.1787 13.0405L14.6749 14.5345L13.0749 13.0153V17.7923C13.0749 17.8693 13.107 17.9398 13.1712 18.0038C13.2352 18.0679 13.3057 18.1 13.3827 18.1H18.6499C19.3499 18.1 19.9499 17.85 20.4499 17.35C20.9499 16.85 21.1999 16.25 21.1999 15.55C21.1999 14.85 20.9499 14.25 20.4499 13.75C19.9499 13.25 19.3499 13 18.6499 13H17.0999V11C17.0999 9.589 16.6021 8.38625 15.6064 7.39175C14.6107 6.39725 13.4066 5.9 11.9939 5.9C10.5812 5.9 9.38032 6.39725 8.39115 7.39175C7.40182 8.38625 6.90715 9.589 6.90715 11H6.38065C5.40565 11 4.56507 11.3417 3.8589 12.025C3.1529 12.7083 2.7999 13.55 2.7999 14.55C2.7999 15.55 3.15374 16.3917 3.8614 17.075C4.56924 17.7583 5.42374 18.1 6.4249 18.1H8.6749V20.25H6.4249Z" fill="#5F6368"/>
</svg>
