<svg width="17" height="17" viewBox="0 0 17 17" fill="none" xmlns="http://www.w3.org/2000/svg">
<g clip-path="url(#clip0_570_3250)">
<path d="M0.833984 12.4346V11.6218C0.833984 11.1782 1.0656 10.8139 1.52882 10.5288C1.99215 10.2438 2.59604 10.1013 3.34048 10.1013C3.46348 10.1013 3.58737 10.1051 3.71215 10.1128C3.83693 10.1204 3.9626 10.1354 4.08915 10.1576C3.95926 10.3654 3.86287 10.581 3.79998 10.8044C3.73721 11.028 3.70582 11.2573 3.70582 11.4923V12.4346H0.833984ZM4.83398 12.4346V11.5179C4.83398 11.2058 4.9216 10.9206 5.09682 10.6621C5.27204 10.4036 5.5246 10.1782 5.85448 9.98595C6.18437 9.79362 6.57415 9.64939 7.02382 9.55328C7.47337 9.45706 7.96482 9.40895 8.49815 9.40895C9.04171 9.40895 9.53826 9.45706 9.98782 9.55328C10.4374 9.64939 10.8271 9.79362 11.157 9.98595C11.487 10.1782 11.7379 10.4036 11.9096 10.6621C12.0814 10.9206 12.1673 11.2058 12.1673 11.5179V12.4346H4.83398ZM13.2955 12.4346V11.4943C13.2955 11.2435 13.2658 11.0072 13.2065 10.7853C13.147 10.5635 13.0579 10.3543 12.9391 10.1576C13.0699 10.1354 13.1949 10.1204 13.3141 10.1128C13.4334 10.1051 13.5511 10.1013 13.6673 10.1013C14.4118 10.1013 15.0145 10.2421 15.4756 10.5238C15.9368 10.8053 16.1673 11.1713 16.1673 11.6218V12.4346H13.2955ZM5.88532 11.4346H11.1263V11.3641C11.058 11.0949 10.7742 10.8684 10.275 10.6846C9.77587 10.5008 9.18443 10.4089 8.50065 10.4089C7.81687 10.4089 7.22543 10.5008 6.72632 10.6846C6.2271 10.8684 5.94676 11.0949 5.88532 11.3641V11.4346ZM3.33865 9.45378C3.02443 9.45378 2.75598 9.34206 2.53332 9.11862C2.31065 8.89517 2.19932 8.62656 2.19932 8.31278C2.19932 7.99489 2.3111 7.72634 2.53465 7.50712C2.7581 7.28789 3.02671 7.17828 3.34048 7.17828C3.65837 7.17828 3.92798 7.28789 4.14932 7.50712C4.37076 7.72634 4.48148 7.99556 4.48148 8.31478C4.48148 8.62456 4.37193 8.89184 4.15282 9.11662C3.93382 9.34139 3.66243 9.45378 3.33865 9.45378ZM13.6673 9.45378C13.3562 9.45378 13.0883 9.34139 12.8635 9.11662C12.6387 8.89184 12.5263 8.62456 12.5263 8.31478C12.5263 7.99556 12.6387 7.72634 12.8635 7.50712C13.0883 7.28789 13.3566 7.17828 13.6685 7.17828C13.9899 7.17828 14.2603 7.28789 14.4795 7.50712C14.6987 7.72634 14.8083 7.99489 14.8083 8.31278C14.8083 8.62656 14.699 8.89517 14.4803 9.11862C14.2617 9.34206 13.9907 9.45378 13.6673 9.45378ZM8.50298 8.90895C8.02276 8.90895 7.61387 8.74067 7.27632 8.40412C6.93876 8.06767 6.76998 7.65906 6.76998 7.17828C6.76998 6.68784 6.93821 6.27678 7.27465 5.94512C7.61121 5.61334 8.01987 5.44745 8.50065 5.44745C8.99098 5.44745 9.40204 5.61312 9.73382 5.94445C10.0655 6.27567 10.2313 6.68617 10.2313 7.17595C10.2313 7.65606 10.0657 8.06495 9.73448 8.40262C9.40315 8.74017 8.99265 8.90895 8.50298 8.90895ZM8.50382 7.90895C8.70771 7.90895 8.87993 7.83762 9.02048 7.69495C9.16115 7.55217 9.23148 7.37884 9.23148 7.17495C9.23148 6.97117 9.16143 6.79895 9.02132 6.65828C8.88121 6.51773 8.70765 6.44745 8.50065 6.44745C8.29898 6.44745 8.12676 6.5175 7.98398 6.65762C7.84121 6.79762 7.76982 6.97117 7.76982 7.17828C7.76982 7.37995 7.84121 7.55217 7.98398 7.69495C8.12676 7.83762 8.30004 7.90895 8.50382 7.90895Z" fill="#5F6368"/>
</g>
<defs>
<clipPath id="clip0_570_3250">
<rect width="16" height="16" fill="white" transform="translate(0.5 0.575623)"/>
</clipPath>
</defs>
</svg>
