<svg width="17" height="17" viewBox="0 0 17 17" fill="none" xmlns="http://www.w3.org/2000/svg">
<g clip-path="url(#clip0_570_3425)">
<path d="M2.64565 13.9615L1.63281 12.959L4.50081 10.0743C4.84781 9.7384 5.07153 9.33401 5.17198 8.86112C5.27242 8.38812 5.32265 7.56862 5.32265 6.40262C5.32265 5.74651 5.46903 5.10167 5.76181 4.46812C6.05448 3.83467 6.47687 3.23634 7.02898 2.67312C8.07176 1.63034 9.22881 1.04228 10.5001 0.908951C11.7715 0.775618 12.8174 1.12478 13.638 1.95645C14.4516 2.80534 14.789 3.86284 14.6501 5.12895C14.5113 6.39506 13.935 7.53495 12.9213 8.54862C12.347 9.12306 11.7443 9.55451 11.1131 9.84295C10.4821 10.1314 9.83615 10.2756 9.17515 10.2756C7.99392 10.2756 7.17792 10.3224 6.72715 10.416C6.27626 10.5095 5.87642 10.7307 5.52765 11.0796L2.64565 13.9615ZM7.31881 8.22562C7.85215 8.76317 8.57159 8.9604 9.47715 8.81728C10.3827 8.67417 11.1947 8.24767 11.9131 7.53778C12.6429 6.81678 13.078 6.00845 13.2185 5.11278C13.3588 4.21712 13.1645 3.50262 12.6355 2.96928C12.0841 2.4444 11.3685 2.24695 10.4886 2.37695C9.60876 2.50684 8.80215 2.93184 8.06881 3.65195C7.34659 4.37195 6.90937 5.18367 6.75715 6.08712C6.60504 6.99056 6.79226 7.7034 7.31881 8.22562ZM12.5688 16.0256C11.7988 16.0256 11.1396 15.7515 10.5913 15.2031C10.043 14.6548 9.76881 13.9956 9.76881 13.2256C9.76881 12.4556 10.043 11.7965 10.5913 11.2481C11.1396 10.6998 11.7988 10.4256 12.5688 10.4256C13.3388 10.4256 13.998 10.6998 14.5463 11.2481C15.0946 11.7965 15.3688 12.4556 15.3688 13.2256C15.3688 13.9956 15.0946 14.6548 14.5463 15.2031C13.998 15.7515 13.3388 16.0256 12.5688 16.0256ZM12.5708 14.5923C12.9473 14.5923 13.2688 14.4583 13.5355 14.1903C13.8021 13.9222 13.9355 13.6 13.9355 13.2236C13.9355 12.8472 13.8014 12.5256 13.5333 12.259C13.2653 11.9923 12.9431 11.859 12.5666 11.859C12.1903 11.859 11.8688 11.993 11.6021 12.261C11.3355 12.5291 11.2021 12.8513 11.2021 13.2276C11.2021 13.6041 11.3361 13.9256 11.6041 14.1923C11.8721 14.459 12.1944 14.5923 12.5708 14.5923Z" fill="#FCA211"/>
</g>
<defs>
<clipPath id="clip0_570_3425">
<rect width="16" height="16" fill="white" transform="translate(0.5 0.575623)"/>
</clipPath>
</defs>
</svg>
