<svg width="17" height="17" viewBox="0 0 17 17" fill="none" xmlns="http://www.w3.org/2000/svg">
<path d="M6.4363 4.60129H7.71846V3.31929H6.4363V4.60129ZM9.00046 4.60129V3.31929H10.2825V4.60129H9.00046ZM6.4363 9.72946V8.44746H7.71846V9.72946H6.4363ZM11.5645 7.16529V5.88329H12.8466V7.16529H11.5645ZM11.5645 9.72946V8.44746H12.8466V9.72946H11.5645ZM9.00046 9.72946V8.44746H10.2825V9.72946H9.00046ZM11.5645 4.60129V3.31929H12.8466V4.60129H11.5645ZM7.71846 5.88329V4.60129H9.00046V5.88329H7.71846ZM4.1543 13.7295V3.31929H5.1543V4.60129H6.4363V5.88329H5.1543V7.16529H6.4363V8.44746H5.1543V13.7295H4.1543ZM10.2825 8.44746V7.16529H11.5645V8.44746H10.2825ZM7.71846 8.44746V7.16529H9.00046V8.44746H7.71846ZM6.4363 7.16529V5.88329H7.71846V7.16529H6.4363ZM9.00046 7.16529V5.88329H10.2825V7.16529H9.00046ZM10.2825 5.88329V4.60129H11.5645V5.88329H10.2825Z" fill="black"/>
</svg>
