<svg width="24" height="25" viewBox="0 0 24 25" fill="none" xmlns="http://www.w3.org/2000/svg">
<path d="M9.916 22.725V16.5365H7.53125V10.0443C7.53125 9.34711 7.76658 8.76319 8.23725 8.29252C8.70792 7.82186 9.29183 7.58652 9.989 7.58652H14.012C14.7092 7.58652 15.2931 7.82186 15.7638 8.29252C16.2344 8.76319 16.4698 9.34711 16.4698 10.0443V16.5365H14.085V22.725H9.916ZM12.0005 6.37877C11.4262 6.37877 10.9332 6.17302 10.5217 5.76152C10.1101 5.35002 9.90425 4.85711 9.90425 4.28277C9.90425 3.69177 10.1101 3.19461 10.5217 2.79127C10.9332 2.38811 11.4262 2.18652 12.0005 2.18652C12.5915 2.18652 13.0886 2.38811 13.4918 2.79127C13.8951 3.19461 14.0967 3.69177 14.0967 4.28277C14.0967 4.85711 13.8951 5.35002 13.4918 5.76152C13.0886 6.17302 12.5915 6.37877 12.0005 6.37877Z" fill="#E5E5ED"/>
</svg>
