<svg width="24" height="25" viewBox="0 0 24 25" fill="none" xmlns="http://www.w3.org/2000/svg">
<path d="M9.87616 22.725V17.0673H6.69141L9.92416 8.63852C10.1037 8.21536 10.3818 7.88044 10.7587 7.63377C11.1357 7.38694 11.5492 7.26352 11.9992 7.26352C12.4492 7.26352 12.8627 7.38694 13.2397 7.63377C13.6165 7.88044 13.8947 8.21536 14.0742 8.63852L17.3069 17.0673H14.1222V22.725H9.87616ZM11.9992 6.37877C11.4082 6.37877 10.9111 6.17719 10.5079 5.77402C10.1046 5.37086 9.90291 4.87377 9.90291 4.28277C9.90291 3.69177 10.1046 3.19461 10.5079 2.79127C10.9111 2.38811 11.4082 2.18652 11.9992 2.18652C12.5902 2.18652 13.0872 2.38811 13.4904 2.79127C13.8937 3.19461 14.0954 3.69177 14.0954 4.28277C14.0954 4.87377 13.8937 5.37086 13.4904 5.77402C13.0872 6.17719 12.5902 6.37877 11.9992 6.37877Z" fill="#E5E5ED"/>
</svg>
