<svg width="81" height="62" viewBox="0 0 81 62" fill="none" xmlns="http://www.w3.org/2000/svg">
<path d="M47.7992 26.9775C47.7992 35.5552 40.8456 42.5088 32.268 42.5088C23.6903 42.5088 17.2432 35.302 17.2432 26.7243C17.2432 18.1466 23.6903 11.4463 32.268 11.4463C40.8456 11.4463 47.7992 18.3999 47.7992 26.9775Z" fill="#2D2541"/>
<path d="M4.7353 25.289L7.61911 25.6266L11.202 25.5422L15.0471 25.0358L17.5814 24.5293L17.4066 27.7368L14.8723 28.2433L11.639 28.6653L7.44433 28.5809L4.38574 28.1589L4.7353 25.289Z" fill="#2D2541"/>
<path d="M4.82254 26.3865C4.29821 29.0032 4.20053 30.0161 2.46306 30.0161C0.725585 30.0161 0.103573 29.3408 0.278344 26.1333C0.278344 24.0821 0.98775 22.8413 2.72522 22.8413C4.4627 22.8413 4.82254 24.3353 4.82254 26.3865Z" fill="#2D2541"/>
<path d="M23.4892 39.2168L26.5279 41.0738L22.9828 45.8007L19.2688 50.19L15.0483 54.326L10.3454 57.4937L7.95796 55.1062L12.6005 51.7094L15.0483 49.8524L16.9897 47.6577L20.6193 43.6905L23.4892 39.2168Z" fill="#2D2541"/>
<path d="M10.4904 56.9427C10.4904 59.5067 11.5034 61.3769 8.54904 61.3769C6.03168 61.3769 3.65332 56.8056 3.65332 54.2416C3.65332 52.8066 3.66823 52.8066 6.18559 52.8066C8.70295 52.8066 10.4904 54.3787 10.4904 56.9427Z" fill="#2D2541"/>
<path d="M36.8271 40.483L41.4696 39.3013L44.424 40.905L48.0535 43.1841L49.9105 45.2099L51.0079 47.4045L51.4299 49.3459L51.0923 51.1185L50.5014 52.3002L49.1509 54.1572L47.2939 56.0987L46.703 56.6895L47.0406 57.8712L42.2293 56.6895L43.7487 55.0857L45.5213 53.1443L48.0535 49.3459L47.8573 48.1975L47.2665 47.3534L45.5213 45.8008L43.2422 44.197L36.8271 40.483Z" fill="#2D2541"/>
<path d="M48.4757 59.8126C48.7024 61.2295 46.3216 61.5008 43.6644 61.5008C41.0072 61.5008 38.9375 62.0704 38.9375 60.0658C38.9375 58.0613 42.7727 55.9241 43.6644 56.183C46.2811 56.9427 48.1381 57.7024 48.4757 59.8126Z" fill="#2D2541"/>
<path d="M63.7529 35.8405C63.0947 37.6988 61.6426 39.048 60.1605 38.334C58.6728 37.6173 58.4523 35.9262 59.1104 34.0679C59.7685 32.2097 61.2364 31.2863 62.6556 31.7889C64.0747 32.2915 64.5002 33.7303 63.7529 35.8405Z" fill="#2D2541"/>
<path d="M46.3646 26.302L49.4034 28.4966L53.0329 30.6912L57.0846 32.4638L59.4481 33.5611L58.8572 36.2622L55.5652 35.3337L51.7668 33.5611L47.6308 31.1977L44.7609 29.0798L46.3646 26.302Z" fill="#2D2541"/>
<ellipse cx="32.8594" cy="24.1919" rx="1.94141" ry="1.94141" fill="#F6F6F6"/>
<ellipse cx="40.2871" cy="24.1919" rx="1.94141" ry="1.94141" fill="#F6F6F6"/>
<path d="M63.1169 29.1325L63.6679 28.5814L64.512 28.3281L65.1028 29.0878L65.1873 29.8475L62.3451 38.0783L60.2747 37.3634L63.1169 29.1325Z" fill="#2D2541"/>
<rect x="66.168" y="22.2505" width="1.20594" height="9.4538" transform="rotate(20.716 66.168 22.2505)" fill="#2D2541"/>
<path d="M75.5648 14.1279C74.7416 16.734 73.3202 18.8077 71.7638 20.0753C70.1957 21.3523 68.6552 21.7028 67.4223 21.3134C66.1895 20.924 65.1298 19.7521 64.5799 17.806C64.034 15.8744 64.0618 13.3605 64.885 10.7544C65.7082 8.14831 67.1295 6.07458 68.686 4.80702C70.2541 3.52999 71.7946 3.17949 73.0274 3.56892C74.2603 3.95835 75.3199 5.13019 75.8699 7.07627C76.4158 9.0079 76.388 11.5219 75.5648 14.1279Z" stroke="#2D2541" stroke-width="3"/>
</svg>
