<svg width="16" height="17" viewBox="0 0 16 17" fill="none" xmlns="http://www.w3.org/2000/svg">
<path d="M3.43928 15.4085C2.98339 15.4085 2.59634 15.2494 2.27811 14.9312C1.95989 14.613 1.80078 14.2259 1.80078 13.77V4.64704C1.80078 4.19115 1.95989 3.80409 2.27811 3.48587C2.59634 3.16765 2.98339 3.00854 3.43928 3.00854H3.82895V1.66504H5.28795V3.00854H10.7393V1.66504H12.1726V3.00854H12.5623C13.0182 3.00854 13.4052 3.16765 13.7234 3.48587C14.0417 3.80409 14.2008 4.19115 14.2008 4.64704V13.77C14.2008 14.2259 14.0417 14.613 13.7234 14.9312C13.4052 15.2494 13.0182 15.4085 12.5623 15.4085H3.43928ZM3.43928 13.9752H12.5623C12.6136 13.9752 12.6606 13.9538 12.7033 13.911C12.7461 13.8684 12.7674 13.8214 12.7674 13.77V7.11371H3.23411V13.77C3.23411 13.8214 3.2555 13.8684 3.29828 13.911C3.34095 13.9538 3.38795 13.9752 3.43928 13.9752ZM3.23411 5.68037H12.7674V4.64704C12.7674 4.59571 12.7461 4.54871 12.7033 4.50604C12.6606 4.46326 12.6136 4.44187 12.5623 4.44187H3.43928C3.38795 4.44187 3.34095 4.46326 3.29828 4.50604C3.2555 4.54871 3.23411 4.59571 3.23411 4.64704V5.68037ZM8.00078 10.0599C7.81534 10.0599 7.654 9.99126 7.51678 9.85404C7.37967 9.71693 7.31111 9.55559 7.31111 9.37004C7.31111 9.18459 7.37967 9.02326 7.51678 8.88604C7.654 8.74893 7.81534 8.68037 8.00078 8.68037C8.18623 8.68037 8.34756 8.74893 8.48478 8.88604C8.62189 9.02326 8.69045 9.18459 8.69045 9.37004C8.69045 9.55559 8.62189 9.71693 8.48478 9.85404C8.34756 9.99126 8.18623 10.0599 8.00078 10.0599ZM5.33411 10.0599C5.14867 10.0599 4.98734 9.99126 4.85011 9.85404C4.713 9.71693 4.64445 9.55559 4.64445 9.37004C4.64445 9.18459 4.713 9.02326 4.85011 8.88604C4.98734 8.74893 5.14867 8.68037 5.33411 8.68037C5.51956 8.68037 5.68089 8.74893 5.81811 8.88604C5.95523 9.02326 6.02378 9.18459 6.02378 9.37004C6.02378 9.55559 5.95523 9.71693 5.81811 9.85404C5.68089 9.99126 5.51956 10.0599 5.33411 10.0599ZM10.6674 10.0599C10.482 10.0599 10.3207 9.99126 10.1834 9.85404C10.0463 9.71693 9.97778 9.55559 9.97778 9.37004C9.97778 9.18459 10.0463 9.02326 10.1834 8.88604C10.3207 8.74893 10.482 8.68037 10.6674 8.68037C10.8529 8.68037 11.0142 8.74893 11.1514 8.88604C11.2886 9.02326 11.3571 9.18459 11.3571 9.37004C11.3571 9.55559 11.2886 9.71693 11.1514 9.85404C11.0142 9.99126 10.8529 10.0599 10.6674 10.0599ZM8.00078 12.6752C7.81534 12.6752 7.654 12.6066 7.51678 12.4694C7.37967 12.3323 7.31111 12.171 7.31111 11.9855C7.31111 11.8 7.37967 11.6386 7.51678 11.5015C7.654 11.3643 7.81534 11.2957 8.00078 11.2957C8.18623 11.2957 8.34756 11.3643 8.48478 11.5015C8.62189 11.6386 8.69045 11.8 8.69045 11.9855C8.69045 12.171 8.62189 12.3323 8.48478 12.4694C8.34756 12.6066 8.18623 12.6752 8.00078 12.6752ZM5.33411 12.6752C5.14867 12.6752 4.98734 12.6066 4.85011 12.4694C4.713 12.3323 4.64445 12.171 4.64445 11.9855C4.64445 11.8 4.713 11.6386 4.85011 11.5015C4.98734 11.3643 5.14867 11.2957 5.33411 11.2957C5.51956 11.2957 5.68089 11.3643 5.81811 11.5015C5.95523 11.6386 6.02378 11.8 6.02378 11.9855C6.02378 12.171 5.95523 12.3323 5.81811 12.4694C5.68089 12.6066 5.51956 12.6752 5.33411 12.6752ZM10.6674 12.6752C10.482 12.6752 10.3207 12.6066 10.1834 12.4694C10.0463 12.3323 9.97778 12.171 9.97778 11.9855C9.97778 11.8 10.0463 11.6386 10.1834 11.5015C10.3207 11.3643 10.482 11.2957 10.6674 11.2957C10.8529 11.2957 11.0142 11.3643 11.1514 11.5015C11.2886 11.6386 11.3571 11.8 11.3571 11.9855C11.3571 12.171 11.2886 12.3323 11.1514 12.4694C11.0142 12.6066 10.8529 12.6752 10.6674 12.6752Z" fill="#5F6368"/>
</svg>
