<svg width="50" height="66" viewBox="0 0 50 66" fill="none" xmlns="http://www.w3.org/2000/svg">
<path d="M41.0538 18.1464C41.0538 27.8507 33.1869 35.7175 23.4826 35.7175C13.7783 35.7175 6.48438 27.5642 6.48438 17.8599C6.48438 8.15559 13.7783 0.575195 23.4826 0.575195C33.1869 0.575195 41.0538 8.44208 41.0538 18.1464Z" fill="#2D2541"/>
<path d="M39.5638 41.8194L39.0883 38.5691L37.9469 34.6784L36.2676 30.6249L34.9721 28.0037L38.5284 27.2555L39.824 29.8766L41.2319 33.2865L42.3679 37.8951L42.8023 41.361L39.5638 41.8194Z" fill="#2D2541"/>
<path d="M40.7384 41.4026C43.7514 41.2094 44.8869 41.0195 45.3956 42.9182C45.9044 44.8169 45.3486 45.6944 41.7922 46.4426C39.5507 47.0432 37.9871 46.6313 37.4783 44.7326C36.9696 42.8339 38.4969 42.0032 40.7384 41.4026Z" fill="#2D2541"/>
<path d="M16.3929 29.2627L20.3071 28.3081L21.2681 34.9234L21.8237 41.4045L21.7719 48.0897L20.5587 54.3889L16.7388 54.3979L17.7201 47.9642L18.1846 44.5193L17.9742 41.211L17.6897 35.1344L16.3929 29.2627Z" fill="#2D2541"/>
<path d="M21.1084 53.865C23.5008 55.5053 25.8939 55.7567 24.0039 58.5133C22.3934 60.8623 16.6064 60.157 14.2139 58.5166C12.875 57.5986 12.8845 57.5847 14.495 55.2358C16.1055 52.8869 18.7159 52.2247 21.1084 53.865Z" fill="#2D2541"/>
<path d="M27.6116 29.0938L31.5258 28.1392L32.4869 34.7544L33.0424 41.2356L32.9907 47.9207L31.7774 54.2199L27.9576 54.229L28.9389 47.7953L29.4034 44.3504L29.193 41.0421L28.9085 34.9655L27.6116 29.0938Z" fill="#2D2541"/>
<path d="M32.3592 53.8839C34.7355 55.5475 37.1261 55.8222 35.2092 58.5603C33.5759 60.8934 27.7961 60.1317 25.4198 58.4681C24.0898 57.5371 24.0995 57.5233 25.7328 55.1902C27.3661 52.8571 29.9829 52.2204 32.3592 53.8839Z" fill="#2D2541"/>
<path d="M6.1758 46.0085C4.07347 45.264 2.54697 43.6211 3.3548 41.9443C4.16565 40.2613 6.07888 40.0117 8.18121 40.7563C10.2835 41.5008 11.3282 43.1616 10.7596 44.7671C10.191 46.3726 8.56319 46.854 6.1758 46.0085Z" fill="#2D2541"/>
<path d="M16.9688 26.3362L14.4859 29.774L12.003 33.8803L9.99764 38.4641L8.7562 41.138L5.70034 40.4695L6.7508 36.7452L8.7562 32.4479L11.4301 27.7686L13.8262 24.5218L16.9688 26.3362Z" fill="#2D2541"/>
<ellipse cx="23.4816" cy="20.38" rx="2.1964" ry="2.1964" fill="#F6F6F6"/>
<ellipse cx="31.8839" cy="20.38" rx="2.1964" ry="2.1964" fill="#F6F6F6"/>
<path d="M14.2098 45.4623L14.8148 46.1038L15.0731 47.0667L14.1944 47.7097L13.3325 47.7799L4.11903 44.2925L4.99627 41.9749L14.2098 45.4623Z" fill="#2D2541"/>
<rect x="21.8906" y="49.1416" width="1.36433" height="10.6955" transform="rotate(112.398 21.8906 49.1416)" fill="#2D2541"/>
<path d="M30.5351 60.696C27.5054 59.6402 25.0876 57.8907 23.6119 55.966C22.1301 54.0333 21.6675 52.0361 22.2509 50.3618C22.8343 48.6876 24.438 47.4104 26.8 46.8172C29.1523 46.2264 32.1337 46.3584 35.1634 47.4142C38.1931 48.47 40.6109 50.2194 42.0866 52.1442C43.5684 54.0769 44.031 56.0741 43.4476 57.7483C42.8642 59.4225 41.2605 60.6997 38.8985 61.2929C36.5462 61.8837 33.5648 61.7517 30.5351 60.696Z" stroke="#2D2541" stroke-width="2"/>
</svg>
