<svg width="17" height="17" viewBox="0 0 17 17" fill="none" xmlns="http://www.w3.org/2000/svg">
<path d="M6.4266 2.47533V1.04199H10.5703V2.47533H6.4266ZM8.49844 15.742C7.65233 15.742 6.86022 15.5822 6.1221 15.2627C5.38399 14.943 4.73866 14.5069 4.1861 13.9543C3.63355 13.4018 3.19744 12.7564 2.87777 12.0183C2.55822 11.2802 2.39844 10.4881 2.39844 9.64199C2.39844 8.79588 2.55822 8.00377 2.87777 7.26566C3.19744 6.52755 3.63355 5.88222 4.1861 5.32966C4.73866 4.7771 5.38399 4.34099 6.1221 4.02133C6.86022 3.70177 7.65233 3.54199 8.49844 3.54199C9.18166 3.54199 9.83966 3.64971 10.4724 3.86516C11.1051 4.08049 11.692 4.39927 12.2331 4.82149L13.2471 3.80749L14.2663 4.82666L13.2523 5.84066C13.7078 6.4151 14.046 7.0226 14.2669 7.66316C14.4879 8.30372 14.5984 8.96333 14.5984 9.64199C14.5984 10.4881 14.4387 11.2802 14.1191 12.0183C13.7994 12.7564 13.3633 13.4018 12.8108 13.9543C12.2582 14.5069 11.6129 14.943 10.8748 15.2627C10.1367 15.5822 9.34455 15.742 8.49844 15.742ZM8.49844 14.3087C9.78733 14.3087 10.8873 13.8531 11.7984 12.942C12.7095 12.0309 13.1651 10.9309 13.1651 9.64199C13.1651 8.3531 12.7095 7.2531 11.7984 6.34199C10.8873 5.43088 9.78733 4.97533 8.49844 4.97533C7.20955 4.97533 6.10955 5.43088 5.19844 6.34199C4.28733 7.2531 3.83177 8.3531 3.83177 9.64199C3.83177 10.9309 4.28733 12.0309 5.19844 12.942C6.10955 13.8531 7.20955 14.3087 8.49844 14.3087ZM7.29327 12.1343L10.9984 9.64199L7.29327 7.14966V12.1343Z" fill="#6B6E78"/>
</svg>
