<svg width="50" height="66" viewBox="0 0 50 66" fill="none" xmlns="http://www.w3.org/2000/svg">
<path d="M35.7255 36.7593C35.7255 43.8088 30.0108 49.5236 22.9613 49.5236C15.9118 49.5236 10.6133 43.6007 10.6133 36.5512C10.6133 29.5017 15.9118 23.9951 22.9613 23.9951C30.0108 23.9951 35.7255 29.7099 35.7255 36.7593Z" fill="#2D2541"/>
<path d="M5.45907 31.184L7.02201 32.9872L9.2431 34.9216L11.8572 36.7453L13.6758 37.8425L11.7921 39.6921L9.97348 38.5949L7.77739 37.0591L5.27863 34.6832L3.65641 32.7319L5.45907 31.184Z" fill="#2D2541"/>
<path d="M4.90385 31.8984C3.13546 33.1958 2.51482 33.7564 1.46043 32.7934C0.406032 31.8305 0.402803 31.076 2.28652 29.2263C3.4233 27.9816 4.54146 27.6218 5.59585 28.5847C6.65025 29.5476 6.04063 30.6537 4.90385 31.8984Z" fill="#2D2541"/>
<path d="M26.707 47.8589L30.5224 46.8877L32.9504 48.2057L35.9333 50.0788L37.4595 51.7436L38.3613 53.5473L38.7082 55.1428L38.4307 56.5996L37.9451 57.5708L36.8352 59.097L35.309 60.6925L34.8234 61.1781L35.1009 62.1493L31.1468 61.1781L32.3954 59.86L33.8522 58.2645L35.9333 55.1428L35.7721 54.199L35.2865 53.5053L33.8522 52.2292L31.9792 50.9112L26.707 47.8589Z" fill="#2D2541"/>
<path d="M36.2803 63.7447C36.4666 64.9092 34.51 65.1321 32.3262 65.1321C30.1424 65.1321 28.4414 65.6002 28.4414 63.9528C28.4414 62.3053 31.5933 60.549 32.3262 60.7617C34.4767 61.3861 36.0028 62.0104 36.2803 63.7447Z" fill="#2D2541"/>
<path d="M19.851 45.0201L19.8016 48.9569L17.9 50.961L15.3188 53.3575L13.3156 54.4008L11.34 54.805L9.7091 54.7271L8.37377 54.082L7.56136 53.3616L6.37447 51.8945L5.22831 50.0074L4.88494 49.4127L3.87503 49.4293L5.83653 45.8613L6.78648 47.4086L7.9506 49.2287L10.4273 52.0468L11.3807 52.1354L12.1764 51.8458L13.7802 50.7907L15.5381 49.3227L19.851 45.0201Z" fill="#2D2541"/>
<path d="M2.02989 50.1556C0.856855 50.0341 1.14794 48.0865 1.71315 45.9771C2.27837 43.8677 2.26643 42.1035 3.85772 42.5299C5.44902 42.9563 6.32977 46.4554 5.9346 47.1082C4.77495 49.0238 3.77688 50.3364 2.02989 50.1556Z" fill="#2D2541"/>
<path d="M47.1351 30.9351C48.1872 32.1671 48.5509 33.7551 47.4336 34.5165C46.3122 35.2809 45.0179 34.7429 43.9658 33.5109C42.9136 32.2789 42.8596 30.8547 43.8005 30.0512C44.7413 29.2477 45.9402 29.536 47.1351 30.9351Z" fill="#2D2541"/>
<path d="M33.2025 39.3915L36.0132 38.1306L39.0666 36.4491L41.9931 34.2938L43.7453 33.0625L45.425 34.593L43.4114 36.5545L40.589 38.5295L37.2072 40.5021L34.5205 41.6744L33.2025 39.3915Z" fill="#2D2541"/>
<ellipse cx="19.7713" cy="30.4744" rx="1.59553" ry="1.59553" fill="#F6F6F6"/>
<ellipse cx="25.8768" cy="30.4744" rx="1.59553" ry="1.59553" fill="#F6F6F6"/>
<path d="M8.28055 23.6995L8.86908 23.4467L9.5905 23.5107L9.80999 24.2706L9.64294 24.8761L4.96545 30.2923L3.60305 29.1157L8.28055 23.6995Z" fill="#2D2541"/>
<rect x="12.707" y="19.377" width="0.991093" height="7.76953" transform="rotate(42.4803 12.707 19.377)" fill="#2D2541"/>
<path d="M22.5366 16.1879C21.0895 17.9562 19.336 19.1351 17.7125 19.6437C16.0795 20.1553 14.7071 19.9623 13.8046 19.2237C12.9021 18.4852 12.4414 17.178 12.6198 15.4761C12.7971 13.7842 13.6057 11.8321 15.0528 10.0637C16.4999 8.29538 18.2534 7.11652 19.8769 6.60793C21.5099 6.09634 22.8823 6.28935 23.7848 7.02789C24.6873 7.76642 25.148 9.07357 24.9696 10.7755C24.7923 12.4674 23.9837 14.4196 22.5366 16.1879Z" stroke="#2D2541" stroke-width="2"/>
</svg>
