<svg width="17" height="17" viewBox="0 0 17 17" fill="none" xmlns="http://www.w3.org/2000/svg">
<path d="M7.7832 14.6257V13.3257H6.44987V12.0757H7.7832V10.5514C6.9182 10.3702 6.20198 9.9396 5.63454 9.25972C5.06698 8.57983 4.7832 7.80055 4.7832 6.92188C4.7832 5.88399 5.14387 5.00294 5.8652 4.27872C6.58665 3.55449 7.46487 3.19238 8.49987 3.19238C9.53487 3.19238 10.4131 3.55449 11.1345 4.27872C11.8559 5.00294 12.2165 5.88399 12.2165 6.92188C12.2165 7.80055 11.9328 8.57983 11.3652 9.25972C10.7978 9.9396 10.0815 10.3702 9.21654 10.5514V12.0757H10.5499V13.3257H9.21654V14.6257H7.7832ZM8.50087 9.19238C9.13187 9.19238 9.66998 8.96938 10.1152 8.52338C10.5605 8.07738 10.7832 7.53894 10.7832 6.90805C10.7832 6.27705 10.5602 5.73894 10.1142 5.29372C9.6682 4.84838 9.12976 4.62572 8.49887 4.62572C7.86787 4.62572 7.32976 4.84872 6.88454 5.29472C6.4392 5.74072 6.21654 6.27916 6.21654 6.91005C6.21654 7.54105 6.43954 8.07916 6.88554 8.52438C7.33154 8.96972 7.86998 9.19238 8.50087 9.19238Z" fill="#DC3545"/>
</svg>
