<svg width="17" height="17" viewBox="0 0 17 17" fill="none" xmlns="http://www.w3.org/2000/svg">
<path d="M13.8829 3.19238V7.29238H12.4495V5.64488L9.91488 8.17322C10.1087 8.48855 10.2629 8.8226 10.3775 9.17538C10.4922 9.52816 10.5495 9.88383 10.5495 10.2424C10.5495 11.2785 10.1892 12.157 9.46854 12.8779C8.74777 13.5987 7.86938 13.959 6.83338 13.959C5.79738 13.959 4.91888 13.5987 4.19788 12.878C3.47677 12.1573 3.11621 11.2789 3.11621 10.2429C3.11621 9.20688 3.4766 8.32838 4.19738 7.60738C4.91827 6.88627 5.79677 6.52572 6.83288 6.52572C7.20054 6.52572 7.55743 6.58427 7.90354 6.70138C8.24954 6.81849 8.58238 6.97149 8.90204 7.16038L11.4367 4.62572H9.78288V3.19238H13.8829ZM6.83188 7.95905C6.20088 7.95905 5.66277 8.18205 5.21754 8.62805C4.77221 9.07405 4.54954 9.61249 4.54954 10.2434C4.54954 10.8744 4.77254 11.4125 5.21854 11.8577C5.66454 12.3031 6.20299 12.5257 6.83388 12.5257C7.46488 12.5257 8.00299 12.3027 8.44821 11.8567C8.89354 11.4107 9.11621 10.8723 9.11621 10.2414C9.11621 9.61038 8.89321 9.07227 8.44721 8.62705C8.00121 8.18172 7.46277 7.95905 6.83188 7.95905Z" fill="#0D6EFD"/>
</svg>
