<svg width="80" height="81" viewBox="0 0 80 81" fill="none" xmlns="http://www.w3.org/2000/svg">
<path d="M20.6925 76.1216C18.3636 76.1216 16.4158 75.3385 14.8492 73.7724C13.2831 72.2057 12.5 70.258 12.5 67.9291V35.9808C12.5 33.6519 13.2831 31.7041 14.8492 30.1374C16.4158 28.5713 18.3636 27.7882 20.6925 27.7882H22.6667V21.1216C22.6667 16.2371 24.3536 12.0994 27.7275 8.70825C31.1014 5.31714 35.1922 3.62158 40 3.62158C44.8078 3.62158 48.8986 5.31714 52.2725 8.70825C55.6464 12.0994 57.3333 16.2371 57.3333 21.1216V27.7882H59.3075C61.6364 27.7882 63.5842 28.5713 65.1508 30.1374C66.7169 31.7041 67.5 33.6519 67.5 35.9808V67.9291C67.5 70.258 66.7169 72.2057 65.1508 73.7724C63.5842 75.3385 61.6364 76.1216 59.3075 76.1216H20.6925ZM20.6925 68.9549H59.3075C59.6069 68.9549 59.8528 68.8588 60.045 68.6666C60.2372 68.4744 60.3333 68.2285 60.3333 67.9291V35.9808C60.3333 35.6813 60.2372 35.4355 60.045 35.2433C59.8528 35.051 59.6069 34.9549 59.3075 34.9549H20.6925C20.3931 34.9549 20.1472 35.051 19.955 35.2433C19.7628 35.4355 19.6667 35.6813 19.6667 35.9808V67.9291C19.6667 68.2285 19.7628 68.4744 19.955 68.6666C20.1472 68.8588 20.3931 68.9549 20.6925 68.9549ZM40.0133 59.1216C41.9572 59.1216 43.6078 58.4388 44.965 57.0733C46.3217 55.7071 47 54.0521 47 52.1082C47 50.1644 46.3172 48.5138 44.9517 47.1566C43.5856 45.7999 41.9306 45.1216 39.9867 45.1216C38.0428 45.1216 36.3922 45.8044 35.035 47.1699C33.6783 48.536 33 50.191 33 52.1349C33 54.0788 33.6828 55.7294 35.0483 57.0866C36.4144 58.4432 38.0694 59.1216 40.0133 59.1216ZM29.8333 27.7882H50.1667V21.1216C50.1667 18.2882 49.1772 15.8577 47.1983 13.8299C45.2194 11.8021 42.8167 10.7882 39.99 10.7882C37.1633 10.7882 34.7639 11.8021 32.7917 13.8299C30.8194 15.8577 29.8333 18.2882 29.8333 21.1216V27.7882Z" fill="#FCA211"/>
</svg>
