<svg width="100" height="101" viewBox="0 0 100 101" fill="none" xmlns="http://www.w3.org/2000/svg">
<path fill-rule="evenodd" clip-rule="evenodd" d="M100 50.7881C100 78.4023 77.6142 100.788 50 100.788C22.3858 100.788 0 78.4023 0 50.7881C0 23.1738 22.3858 0.788086 50 0.788086C77.6142 0.788086 100 23.1738 100 50.7881ZM69.8718 48.3963C69.8078 48.2681 69.6155 48.1399 69.4874 48.1399L62.5671 46.9225L63.6564 37.6954V37.5032V37.4391C63.6564 37.375 63.5923 37.311 63.5282 37.2469H63.4641C63.4321 37.2148 63.4001 37.1988 63.368 37.1828C63.336 37.1668 63.304 37.1508 63.2719 37.1187H63.2078H63.0156H62.9515L53.9808 38.4003L52.7633 31.48C52.7633 31.2877 52.6352 31.1596 52.507 31.0955C52.3789 31.0314 52.1866 30.9673 51.9944 31.0314L47.8935 32.1848C47.7012 32.2489 47.5731 32.377 47.509 32.5052L36.0392 57.1107L34.8218 58.3282L31.4898 61.6602C29.5034 63.6466 29.5034 66.8504 31.4898 68.7727L32.2587 69.5416C33.2199 70.5028 34.5014 71.0154 35.847 71.0154C37.1286 71.0154 38.4101 70.5028 39.4353 69.5416L42.7673 66.2096C42.7673 66.2096 42.7673 66.1456 42.8314 66.1456L44.0489 64.9281C44.1129 64.864 44.1129 64.864 44.1129 64.7999L68.5262 53.4583C68.7185 53.3943 68.7825 53.2661 68.8466 53.0739L70 48.9729C69.9719 48.8606 69.9561 48.7728 69.9419 48.6935L69.9418 48.6934C69.9236 48.5919 69.9078 48.5042 69.8718 48.3963ZM53.1478 56.4699C53.0837 56.6622 53.1478 56.7903 53.2759 56.9185C53.4041 57.0466 53.5322 57.1748 53.6604 57.1748L56.4798 57.5593L49.5595 60.7631L47.0605 58.2641L53.6604 53.7146L53.1478 56.4699ZM43.6003 63.5825L41.8702 61.8524L46.0993 58.9689L48.4702 61.3398L43.6003 63.5825ZM39.4994 52.4331L41.8062 54.7399L38.9227 58.9689L37.1926 57.2389L39.4994 52.4331ZM42.8314 45.1924L43.2159 46.7303C43.2799 46.9866 43.5362 47.1788 43.7925 47.1788H46.9964L42.511 53.7146L40.012 51.2156L42.8314 45.1924ZM47.8294 51.9846C47.8294 52.3049 48.0857 52.5613 48.4061 52.5613L52.8274 52.8176L46.2275 57.367L43.4722 54.6117L47.7012 48.4603L47.8294 51.9846ZM39.8198 59.866L42.7032 55.6369L45.1382 58.0719L40.9091 60.9553L39.8198 59.866ZM36.1033 58.6486L36.4878 58.2641L42.6392 64.4155L42.2547 64.7999L36.1033 58.6486ZM54.4293 51.7283L49.0468 51.4079L48.7905 46.8584L53.7885 39.6177L61.2215 38.5284L54.6215 45.1283C54.3652 45.3846 54.3652 45.7691 54.6215 45.9613C54.7497 46.0895 54.8779 46.1536 55.0701 46.1536C55.1982 46.1536 55.3905 46.0895 55.5186 45.9613L62.1826 39.2973L61.2855 47.0506L54.4293 51.7283ZM48.4702 33.146L50.9051 32.4411L47.4449 38.7847C47.2527 39.1051 47.3809 39.4255 47.7012 39.6177C47.7653 39.6818 47.8935 39.6818 48.0216 39.6818C48.2139 39.6818 48.4702 39.5536 48.5342 39.3614L51.8022 33.3382L52.7633 38.8488L47.8935 45.9613H44.9459L46.6119 43.206C46.8042 42.8856 46.676 42.5653 46.4197 42.373C46.0993 42.1808 45.7789 42.309 45.5867 42.5653L44.1129 45.0643L43.7285 43.3983L48.4702 33.146ZM38.5382 68.5805C37.0645 70.0543 34.6296 70.0543 33.1558 68.5805L32.3869 67.8116C30.9131 66.3378 30.9131 63.9029 32.3869 62.4291L35.2703 59.5456L41.4217 65.697L38.5382 68.5805ZM58.5943 56.5981L55.9031 56.2136L58.7865 54.8039C59.1069 54.6758 59.2351 54.2913 59.0428 53.971C58.9147 53.6506 58.5302 53.5224 58.2098 53.7146L54.6215 55.5088L55.1982 52.7535L61.9904 48.0759L67.4369 49.037L60.5166 52.5613C60.1962 52.6894 60.0681 53.0739 60.2603 53.3943C60.3885 53.5865 60.5807 53.7146 60.837 53.7146C60.9011 53.7146 61.0292 53.7146 61.0933 53.6506L68.3981 49.9341L67.6932 52.4331L58.5943 56.5981ZM52.1226 47.6272L53.0838 46.6661C53.276 46.4739 53.6605 46.4739 53.9809 46.6661C54.2372 46.8583 54.2372 47.2428 53.9809 47.4991L53.0197 48.4602C52.8916 48.5884 52.6993 48.6525 52.5712 48.6525C52.3789 48.6525 52.2508 48.5884 52.1226 48.4602C51.8663 48.268 51.8663 47.8835 52.1226 47.6272Z" fill="#6B6E78"/>
</svg>
