<svg width="16" height="16" viewBox="0 0 16 16" fill="none" xmlns="http://www.w3.org/2000/svg">
<path d="M8.01905 14.8167C7.16449 14.8167 6.3631 14.6569 5.61488 14.3372C4.86655 14.0175 4.20905 13.5744 3.64238 13.0077C3.07572 12.441 2.63255 11.7843 2.31288 11.0375C1.99322 10.2909 1.83338 9.49024 1.83338 8.63568C1.83338 7.78113 1.99322 6.97974 2.31288 6.23152C2.63255 5.48318 3.07572 4.82568 3.64238 4.25902C4.20905 3.69235 4.86577 3.24918 5.61255 2.92952C6.35922 2.60985 7.15983 2.45002 8.01438 2.45002C8.86894 2.45002 9.67033 2.60985 10.4185 2.92952C11.1669 3.24918 11.8244 3.69235 12.391 4.25902C12.9577 4.82568 13.4009 5.48241 13.7205 6.22918C14.0402 6.97585 14.2 7.77646 14.2 8.63102C14.2 9.48557 14.0402 10.287 13.7205 11.0352C13.4009 11.7835 12.9577 12.441 12.391 13.0077C11.8244 13.5744 11.1677 14.0175 10.4209 14.3372C9.67422 14.6569 8.8736 14.8167 8.01905 14.8167ZM9.88205 11.518L10.8847 10.5154L8.73338 8.36418V5.23335H7.30005V8.93585L9.88205 11.518ZM3.63588 1.32568L4.63855 2.32818L1.69488 5.27185L0.692383 4.26918L3.63588 1.32568ZM12.3975 1.32568L15.341 4.26918L14.3385 5.27185L11.3949 2.32818L12.3975 1.32568ZM8.01672 13.3834C9.3236 13.3834 10.442 12.9184 11.3719 11.9885C12.3018 11.0586 12.7667 9.94024 12.7667 8.63335C12.7667 7.32646 12.3018 6.20807 11.3719 5.27818C10.442 4.3483 9.32083 3.88335 8.00838 3.88335C6.69594 3.88335 5.57755 4.34518 4.65322 5.26885C3.72888 6.19252 3.26672 7.31368 3.26672 8.63235C3.26672 9.95102 3.72866 11.0725 4.65255 11.9969C5.57644 12.9212 6.69783 13.3834 8.01672 13.3834Z" fill="#5F6368"/>
</svg>
