<svg width="80" height="81" viewBox="0 0 80 81" fill="none" xmlns="http://www.w3.org/2000/svg">
<rect y="0.576172" width="80" height="80" rx="40" fill="#FCA211"/>
<path d="M39.9297 53.9277C38.0898 53.9277 36.4375 53.6113 34.9727 52.9785C33.5195 52.334 32.3711 51.4434 31.5273 50.3066C30.6953 49.1582 30.2617 47.8574 30.2266 46.4043H35.5703C35.6055 47.0254 35.8164 47.5762 36.2031 48.0566C36.5898 48.5371 37.1113 48.9121 37.7676 49.1816C38.4238 49.4395 39.1562 49.5684 39.9648 49.5684C40.7969 49.5684 41.541 49.4219 42.1973 49.1289C42.8652 48.8242 43.3809 48.4082 43.7441 47.8809C44.1191 47.3535 44.3008 46.7559 44.2891 46.0879C44.3008 45.3965 44.1074 44.7812 43.709 44.2422C43.3223 43.7031 42.7656 43.2871 42.0391 42.9941C41.3125 42.6895 40.457 42.5371 39.4727 42.5371H37.1172V38.6348H39.4727C40.293 38.6348 41.0254 38.4941 41.6699 38.2129C42.3145 37.9316 42.8184 37.5332 43.1816 37.0176C43.5449 36.502 43.7266 35.916 43.7266 35.2598C43.7266 34.6152 43.5684 34.0469 43.252 33.5547C42.9473 33.0625 42.5137 32.6816 41.9512 32.4121C41.3887 32.1309 40.7383 31.9902 40 31.9902C39.25 31.9902 38.5586 32.125 37.9258 32.3945C37.3047 32.6523 36.8008 33.0273 36.4141 33.5195C36.0391 34 35.8398 34.5566 35.8164 35.1895H30.7539C30.7773 33.748 31.1934 32.4648 32.002 31.3398C32.8105 30.2148 33.9121 29.3418 35.3066 28.7207C36.7129 28.0879 38.2773 27.7715 40 27.7715C41.7344 27.7715 43.2695 28.0879 44.6055 28.7207C45.9531 29.3418 46.9961 30.2031 47.7344 31.3047C48.4727 32.3945 48.8359 33.6074 48.8242 34.9434C48.8359 35.8691 48.6367 36.7129 48.2266 37.4746C47.8281 38.2246 47.2598 38.8457 46.5215 39.3379C45.7949 39.8301 44.957 40.1582 44.0078 40.3223V40.5332C45.2383 40.6855 46.2871 41.0254 47.1543 41.5527C48.0215 42.0801 48.6777 42.7656 49.123 43.6094C49.5684 44.4414 49.7852 45.3848 49.7734 46.4395C49.7852 47.8691 49.3691 49.1582 48.5254 50.3066C47.6816 51.4434 46.5098 52.334 45.0098 52.9785C43.5098 53.6113 41.8164 53.9277 39.9297 53.9277Z" fill="#FFF3C5"/>
</svg>
