<svg width="80" height="81" viewBox="0 0 80 81" fill="none" xmlns="http://www.w3.org/2000/svg">
<rect y="0.576172" width="80" height="80" rx="40" fill="#FCA211"/>
<path d="M30.9824 49.7441L40.123 41.3418C41.0254 40.4746 41.7227 39.7539 42.2148 39.1797C42.7188 38.6055 43.1055 38.0371 43.375 37.4746C43.6445 36.9004 43.7793 36.291 43.7793 35.6465C43.7793 34.9082 43.6035 34.2637 43.252 33.7129C42.9121 33.1621 42.4316 32.7402 41.8105 32.4473C41.2012 32.1426 40.5098 31.9902 39.7363 31.9902C38.541 31.9902 37.5859 32.3477 36.8711 33.0625C36.1562 33.7656 35.7988 34.7207 35.7988 35.9277H30.7715C30.7598 34.2871 31.1289 32.8516 31.8789 31.6211C32.6406 30.3906 33.707 29.4414 35.0781 28.7734C36.4492 28.1055 38.0254 27.7715 39.8066 27.7715C41.5996 27.7715 43.1816 28.0938 44.5527 28.7383C45.9238 29.3711 46.9844 30.2559 47.7344 31.3926C48.4961 32.5293 48.877 33.8301 48.877 35.2949C48.877 36.291 48.6836 37.252 48.2969 38.1777C47.9102 39.0918 47.2363 40.1172 46.2754 41.2539C45.3262 42.3789 43.9785 43.7324 42.2324 45.3145L38.3652 49.0762V49.2168H49.2285V53.5762H31.0176L30.9824 49.7441Z" fill="#FFF3C5"/>
</svg>
