<svg width="48" height="48" viewBox="0 0 48 48" fill="none" xmlns="http://www.w3.org/2000/svg">
<rect x="0.5" y="0.5" width="47" height="47" rx="7.5" stroke="#DC3545"/>
<path d="M17.0214 32.3V30.15H18.6289L20.4309 24.1655C20.5784 23.6372 20.8679 23.2109 21.2992 22.8865C21.7307 22.5622 22.2189 22.4 22.7637 22.4H25.2367C25.7815 22.4 26.2697 22.5622 26.7012 22.8865C27.1325 23.2109 27.4219 23.6372 27.5694 24.1655L29.3714 30.15H30.9789V32.3H17.0214ZM20.8847 30.15H27.1157L25.5002 24.7713C25.481 24.7006 25.4442 24.6461 25.3897 24.6078C25.3352 24.5693 25.2727 24.55 25.2022 24.55H22.7982C22.7277 24.55 22.6652 24.5693 22.6107 24.6078C22.5562 24.6461 22.5194 24.7006 22.5002 24.7713L20.8847 30.15ZM22.9252 19.7923V14.6423H25.0752V19.7923H22.9252ZM29.2002 22.5115L27.6809 20.9923L31.3252 17.373L32.8194 18.8673L29.2002 22.5115ZM30.4002 27.2673V25.1173H35.5502V27.2673H30.4002ZM18.8002 22.5115L15.1809 18.8673L16.6752 17.373L20.3194 20.9923L18.8002 22.5115ZM12.4502 27.2673V25.1173H17.6002V27.2673H12.4502Z" fill="#DC3545"/>
</svg>
