<svg width="24" height="24" viewBox="0 0 24 24" fill="none" xmlns="http://www.w3.org/2000/svg">
<path d="M6.90039 18.25C5.16422 18.25 3.68856 17.6426 2.47339 16.4277C1.25806 15.2129 0.650391 13.7378 0.650391 12.0023C0.650391 10.2667 1.25806 8.79083 2.47339 7.5745C3.68856 6.35817 5.16422 5.75 6.90039 5.75H17.1004C18.8366 5.75 20.3122 6.35742 21.5274 7.57225C22.7427 8.78708 23.3504 10.2623 23.3504 11.9978C23.3504 13.7333 22.7427 15.2092 21.5274 16.4255C20.3122 17.6418 18.8366 18.25 17.1004 18.25H6.90039ZM6.90039 16.1H17.1004C18.2279 16.1 19.1931 15.6979 19.9961 14.8938C20.799 14.0896 21.2004 13.1229 21.2004 11.9938C21.2004 10.8646 20.799 9.9 19.9961 9.1C19.1931 8.3 18.2279 7.9 17.1004 7.9H6.90039C5.77289 7.9 4.80772 8.30208 4.00489 9.10625C3.20189 9.91042 2.80039 10.8771 2.80039 12.0062C2.80039 13.1354 3.20189 14.1 4.00489 14.9C4.80772 15.7 5.77289 16.1 6.90039 16.1ZM6.90214 15.4C7.84714 15.4 8.64972 15.0693 9.30989 14.4078C9.97022 13.7463 10.3004 12.9431 10.3004 11.9983C10.3004 11.0532 9.96964 10.2507 9.30814 9.5905C8.64664 8.93017 7.84347 8.6 6.89864 8.6C5.95364 8.6 5.15106 8.93075 4.49089 9.59225C3.83056 10.2538 3.50039 11.0569 3.50039 12.0018C3.50039 12.9468 3.83114 13.7493 4.49264 14.4095C5.15414 15.0698 5.95731 15.4 6.90214 15.4Z" fill="#5F6368"/>
</svg>
