<svg width="16" height="19" viewBox="0 0 16 19" fill="none" xmlns="http://www.w3.org/2000/svg">
<path d="M2.11419 18.6546C1.52595 18.6546 1.02652 18.4493 0.615914 18.0387C0.205305 17.628 0 17.1286 0 16.5404V4.76876C0 4.18052 0.205305 3.68109 0.615914 3.27048C1.02652 2.85987 1.52595 2.65457 2.11419 2.65457H2.61699V0.921021H4.49957V2.65457H11.5335V0.921021H13.383V2.65457H13.8858C14.4741 2.65457 14.9735 2.85987 15.3841 3.27048C15.7947 3.68109 16 4.18052 16 4.76876V16.5404C16 17.1286 15.7947 17.628 15.3841 18.0387C14.9735 18.4493 14.4741 18.6546 13.8858 18.6546H2.11419ZM2.11419 16.8051H13.8858C13.952 16.8051 14.0127 16.7775 14.0677 16.7223C14.1229 16.6673 14.1505 16.6066 14.1505 16.5404V7.95156H1.84946V16.5404C1.84946 16.6066 1.87706 16.6673 1.93226 16.7223C1.98731 16.7775 2.04796 16.8051 2.11419 16.8051ZM1.84946 6.1021H14.1505V4.76876C14.1505 4.70253 14.1229 4.64188 14.0677 4.58683C14.0127 4.53163 13.952 4.50403 13.8858 4.50403H2.11419C2.04796 4.50403 1.98731 4.53163 1.93226 4.58683C1.87706 4.64188 1.84946 4.70253 1.84946 4.76876V6.1021ZM8 11.7531C7.76072 11.7531 7.55254 11.6645 7.37548 11.4875C7.19857 11.3106 7.11011 11.1024 7.11011 10.863C7.11011 10.6237 7.19857 10.4155 7.37548 10.2384C7.55254 10.0615 7.76072 9.97306 8 9.97306C8.23928 9.97306 8.44746 10.0615 8.62452 10.2384C8.80143 10.4155 8.88989 10.6237 8.88989 10.863C8.88989 11.1024 8.80143 11.3106 8.62452 11.4875C8.44746 11.6645 8.23928 11.7531 8 11.7531ZM4.55914 11.7531C4.31986 11.7531 4.11168 11.6645 3.93462 11.4875C3.75771 11.3106 3.66925 11.1024 3.66925 10.863C3.66925 10.6237 3.75771 10.4155 3.93462 10.2384C4.11168 10.0615 4.31986 9.97306 4.55914 9.97306C4.79842 9.97306 5.0066 10.0615 5.18366 10.2384C5.36057 10.4155 5.44903 10.6237 5.44903 10.863C5.44903 11.1024 5.36057 11.3106 5.18366 11.4875C5.0066 11.6645 4.79842 11.7531 4.55914 11.7531ZM11.4409 11.7531C11.2016 11.7531 10.9934 11.6645 10.8163 11.4875C10.6394 11.3106 10.551 11.1024 10.551 10.863C10.551 10.6237 10.6394 10.4155 10.8163 10.2384C10.9934 10.0615 11.2016 9.97306 11.4409 9.97306C11.6801 9.97306 11.8883 10.0615 12.0654 10.2384C12.2423 10.4155 12.3308 10.6237 12.3308 10.863C12.3308 11.1024 12.2423 11.3106 12.0654 11.4875C11.8883 11.6645 11.6801 11.7531 11.4409 11.7531ZM8 15.1277C7.76072 15.1277 7.55254 15.0392 7.37548 14.8621C7.19857 14.6852 7.11011 14.4771 7.11011 14.2378C7.11011 13.9984 7.19857 13.7902 7.37548 13.6133C7.55254 13.4362 7.76072 13.3477 8 13.3477C8.23928 13.3477 8.44746 13.4362 8.62452 13.6133C8.80143 13.7902 8.88989 13.9984 8.88989 14.2378C8.88989 14.4771 8.80143 14.6852 8.62452 14.8621C8.44746 15.0392 8.23928 15.1277 8 15.1277ZM4.55914 15.1277C4.31986 15.1277 4.11168 15.0392 3.93462 14.8621C3.75771 14.6852 3.66925 14.4771 3.66925 14.2378C3.66925 13.9984 3.75771 13.7902 3.93462 13.6133C4.11168 13.4362 4.31986 13.3477 4.55914 13.3477C4.79842 13.3477 5.0066 13.4362 5.18366 13.6133C5.36057 13.7902 5.44903 13.9984 5.44903 14.2378C5.44903 14.4771 5.36057 14.6852 5.18366 14.8621C5.0066 15.0392 4.79842 15.1277 4.55914 15.1277ZM11.4409 15.1277C11.2016 15.1277 10.9934 15.0392 10.8163 14.8621C10.6394 14.6852 10.551 14.4771 10.551 14.2378C10.551 13.9984 10.6394 13.7902 10.8163 13.6133C10.9934 13.4362 11.2016 13.3477 11.4409 13.3477C11.6801 13.3477 11.8883 13.4362 12.0654 13.6133C12.2423 13.7902 12.3308 13.9984 12.3308 14.2378C12.3308 14.4771 12.2423 14.6852 12.0654 14.8621C11.8883 15.0392 11.6801 15.1277 11.4409 15.1277Z" fill="#6B6E78"/>
</svg>
